<svg width="26" height="26" xmlns="http://www.w3.org/2000/svg">
  <path d="M13 26C5.82029825 26 0 20.1797017 0 13 0 5.82029825 5.82029825 0 13 0c7.1797017 0 13 5.82029825 13 13 0 7.1797017-5.8202983 13-13 13zm0-2c6.0751322 0 11-4.9248678 11-11 0-6.07513225-4.9248678-11-11-11C6.92486775 2 2 6.92486775 2 13c0 6.0751322 4.92486775 11 11 11zM9.20000076 7.71818182C9.62424531 7.17272455 10.1560582 6.7500015 10.7954553 6.45c.6393971-.3000015 1.337875-.45 2.0954546-.45.5030328 0 .9818159.07575682 1.4363636.22727273s.8636345.37272582 1.2272727.66363636c.3636382.29091055.6515141.6681795.8636364 1.13181818.2121223.46363868.3181818.98636073.3181818 1.56818182 0 .35151691-.043939.68636201-.1318182 1.00454541-.0878792.3181835-.2151507.6121199-.3818182.8818182-.1666675.2696983-.3363627.5075748-.5090909.7136364-.1727281.2060616-.3772715.4242413-.6136363.6545454-.1030309.0969702-.2515142.2348476-.4454546.4136364-.1939403.1787888-.3424237.3196965-.4454545.4227273-.1030308.1030308-.2166661.227272-.3409091.3727273-.1242431.1454552-.2166664.2833326-.2772727.4136363-.0606064.1303037-.0939394.2621206-.1.3954546l-.0454546.8181818h-1.8454545l-.0090909-.9363637c0-.1272733.0075756-.2499994.0227272-.3681818.0151516-.1181824.0454543-.2378782.0909091-.3590909.0454548-.1212127.0848483-.2257571.1181818-.3136363.0333335-.0878793.093939-.1939388.1818182-.3181819.0878792-.124243.1530301-.2181815.1954546-.2818181.0424244-.0636367.1212115-.1621206.2363636-.2954546.1151521-.133334.1939392-.222727.2363636-.2681818.0424245-.0454548.1318175-.1393932.2681819-.2818182.1363643-.1424249.222727-.231818.2590909-.2681818.3878807-.4121233.6833323-.7893922.8863636-1.1318182.2030313-.3424259.3045455-.7257554.3045455-1.14999999 0-.51515409-.154544-.91666523-.4636364-1.20454546-.3090925-.28788022-.7121187-.43181818-1.2090909-.43181818-.3636382 0-.7242407.09696873-1.0818182.29090909-.3575775.19394037-.651514.46060437-.8818182.8L9.20000076 7.71818182zM11.1545462 18.6181818c0-.3818201.1378774-.7090895.4136364-.9818182.2757589-.2727286.6106041-.4090909 1.0045454-.4090909.3818201 0 .7106047.1363623.9863637.4090909.2757589.2727287.4136363.5999981.4136363.9818182s-.1378774.7075744-.4136363.9772727C13.2833327 19.8651529 12.9545481 20 12.572728 20c-.3939413 0-.7287865-.1348471-1.0045454-.4045455-.275759-.2696983-.4136364-.5954526-.4136364-.9772727z" fill-rule="nonzero" fill="#6298F1"/>
</svg>
