<svg xmlns="http://www.w3.org/2000/svg" width="26" height="26">
  <path fill="#8DBC54" fill-rule="nonzero" d="M13 26C5.82029825 26 0 20.1797017 0 13 0 5.82029825 5.82029825 0 13 0c7.1797017 0 13 5.82029825 13 13 0 7.1797017-5.8202983 13-13 13zm0-2c6.0751322 0 11-4.9248678 11-11 0-6.07513225-4.9248678-11-11-11C6.92486775 2 2 6.92486775 2 13c0 6.0751322 4.92486775 11 11 11zM8.70710678 12.5428932L11 14.75l6.2928932-6.20710678c.3905243-.3905243 1.0236893-.3905243 1.4142136 0 .3905243.3905243.3905243 1.02368927 0 1.41421356L11 17.75l-3.70710678-3.7928932c-.3905243-.3905243-.3905243-1.0236893 0-1.4142136.3905243-.3905243 1.02368927-.3905243 1.41421356 0z"/>
</svg>
