<svg id="Layer_1" data-name="Layer 1" xmlns="http://www.w3.org/2000/svg" width="22" height="22" viewBox="0 0 22 22">
  <path id="attachment" class="cls-1"
        d="M15.43,7.54l1.32-1.32h0l-1.3,1.35h0ZM3.55,17.41,2.23,18.74,2,18.55l1.32-1.32.09.09Zm11-9.84L6.41,15.69a.93.93,0,0,1-1.32-1.32l8.12-8.12a2.5,2.5,0,1,1,3.54,3.54h0L8,18.55a4.2,4.2,0,0,1-5.85.09,4.2,4.2,0,0,1,.09-5.85l9.15-9.15a5.66,5.66,0,0,1,8,8L13.1,17.93a.93.93,0,0,1-1.32-1.32L18,10.3A3.77,3.77,0,0,0,12.7,5L3.55,14.12a2.34,2.34,0,0,0-.09,3.2,2.34,2.34,0,0,0,3.2-.09l8.76-8.76a.63.63,0,1,0-.89-.9Z"/>
</svg>
