<svg id="Layer_1" data-name="Layer 1" xmlns="http://www.w3.org/2000/svg" width="34" height="34" viewBox="0 0 34 34">
  <title>attending</title>
  <g id="Attending-_icon_" data-name="Attending-(icon)">
    <path id="Female" d="M17.21,12.63v2.31a1.58,1.58,0,0,1-1,1.48v.09a32,32,0,0,0,4.36.85,1.09,1.09,0,0,1,0,.3.92.92,0,0,1-.46.76,25.82,25.82,0,0,0-4.58,2.39,4.55,4.55,0,0,0-1.91,3L13,29.4s2.1.73,10.48.73S34,29.4,34,29.4l-.59-5.56a4.44,4.44,0,0,0-1.94-3,34.45,34.45,0,0,0-4.27-2.22,1.29,1.29,0,0,1-.75-1,1.08,1.08,0,0,1,0-.29,32,32,0,0,0,4.36-.85v-.09a1.58,1.58,0,0,1-1-1.48V12.63a.85.85,0,0,0,.84-.85V10.12a.84.84,0,0,0-.84-.85h-.1c-.52-3.34-3.1-5.87-6.19-5.87s-5.67,2.53-6.19,5.87h-.1a.84.84,0,0,0-.84.85v1.66A.85.85,0,0,0,17.21,12.63Z" fill="#f0eeee"/>
    <path id="Path" d="M20.79,7.92V9.34a2.66,2.66,0,0,1-.57,4.56,8.94,8.94,0,0,1-2.39,3.72,2.3,2.3,0,0,0-.58,1.44c0,1.05,1.58,1.55,1.59,1.59a50,50,0,0,1,5.37,2.92,4.94,4.94,0,0,1,2.07,3.13L27,32s-2.7,1.06-13.5,1.06S0,32,0,32l.75-5.34a5.1,5.1,0,0,1,2-3.19,38.82,38.82,0,0,1,5.36-3l.28-.11c.45-.2,1.3-.67,1.3-1.44a2.17,2.17,0,0,0-.42-1.23,8.89,8.89,0,0,1-2.5-3.82,2.63,2.63,0,0,1-1.61-2.47,2.6,2.6,0,0,1,1-2.09V7.92a6.49,6.49,0,0,1,6.23-6.48h6.71A2.62,2.62,0,0,0,20.79.9V2.49a3.15,3.15,0,0,1-.87,2.18A6.45,6.45,0,0,1,20.79,7.92Z" fill="#9f9f9f"/>
    <path id="Path-2" data-name="Path" d="M18.21,22l-.48-.22-.24-.47.61.64c.07.06.07.06.08,0l-.08,0L18,21.89l-.2-.09a5.32,5.32,0,0,1-.55-.31,2.86,2.86,0,0,1-1.47-2.44,3.7,3.7,0,0,1,.93-2.4l.14-.15a7.45,7.45,0,0,0,2-3.1l.22-.64.63-.26a1.11,1.11,0,0,0,.68-1,1.14,1.14,0,0,0-.44-.95l-.6-.45V7.92a5,5,0,0,0-.67-2.49l-.56-1,.78-.81a1.65,1.65,0,0,0,.4-.7H12.54a5,5,0,0,0-4.79,5v2.16l-.6.45a1.1,1.1,0,0,0-.44.89,1.13,1.13,0,0,0,.68,1.08l.63.26.22.64a7.4,7.4,0,0,0,2.07,3.18l.14.12.1.15a3.61,3.61,0,0,1,.7,2.09A3.07,3.07,0,0,1,9,21.77l-.32.13q-.7.32-1.41.69c-.91.47-1.8,1-2.62,1.49l-.77.49-.32.21A3.66,3.66,0,0,0,2.25,26.9l-.56,4,1.22.18a85.45,85.45,0,0,0,10.61.52,85.45,85.45,0,0,0,10.61-.52l1.22-.18-.56-4a3.5,3.5,0,0,0-1.39-2.08l-.07,0-.22-.14-.82-.49c-.87-.51-1.79-1-2.73-1.49Q18.87,22.31,18.21,22Z" fill="#fafbfc"/>
  </g>
</svg>
