<svg id="Layer_1" data-name="Layer 1" xmlns="http://www.w3.org/2000/svg" width="64" height="64" viewBox="0 0 64 64">
  <title>direct</title>
  <path d="M57,53V16H45V13a13,13,0,0,0-26,0v3H7V53L5,64H59ZM21,13a11,11,0,0,1,22,0v3H21ZM9,18H19v2.18a3,3,0,1,0,2,0V18H43v2.18a3,3,0,1,0,2,0V18H55V53H9ZM7.4,62,9,53.18V54H55v-.82L56.6,62Z" fill="#d8d9d8"/>
  <path id="Heart-_icon_" data-name="Heart- icon " d="M37.43,39.39C38.91,37.83,40,36.23,40,35.47A3.44,3.44,0,0,0,36.59,32h0a3.4,3.4,0,0,0-2.89,1.61L32,36.32l-1.7-2.71A3.4,3.4,0,0,0,27.42,32,3.44,3.44,0,0,0,24,35.46h0c0,.79,1,2.31,2.56,3.91L32,45ZM32,32.55A10.35,10.35,0,0,1,33.4,31a5.36,5.36,0,0,1,3.19-1A5.44,5.44,0,0,1,42,35.47h0c0,1.84-2.09,4.22-3.13,5.31L33.31,46.5a2,2,0,0,1-2.63,0l-5.56-5.72C24,39.56,22,37.31,22,35.47A5.44,5.44,0,0,1,27.41,30h0a5.36,5.36,0,0,1,3.19,1A5.1,5.1,0,0,1,32,32.55Z" fill="#010101"/>
</svg>
