<svg xmlns="http://www.w3.org/2000/svg" width="48" height="48" viewBox="0 0 48 48">
  <title>gamepad</title>
  <path d="M12,26.5a3,3,0,1,0-3-3A3,3,0,0,0,12,26.5Zm0,2a5,5,0,1,1,5-5A5,5,0,0,1,12,28.5Zm25-6v-3a1,1,0,0,0-2,0v3H32a1,1,0,0,0,0,2h3v3a1,1,0,0,0,2,0v-3h3a1,1,0,0,0,0-2Zm10.59,13-1-15a8.69,8.69,0,0,0-8.54-8H25v-7a1,1,0,0,0-2,0v7H10a8.69,8.69,0,0,0-8.54,8l-1,15A7.43,7.43,0,0,0,5.82,43l.35.09a7.07,7.07,0,0,0,8.05-4.11L16,34.5H32l1.77,4.43A7.07,7.07,0,0,0,41.82,43l.35-.09A7.43,7.43,0,0,0,47.59,35.51ZM41.69,41l-.35.09a5.08,5.08,0,0,1-5.71-2.92L33.35,32.5H14.65l-2.27,5.69A5.07,5.07,0,0,1,6.66,41.1L6.31,41a5.43,5.43,0,0,1-3.9-5.37l1-15A6.69,6.69,0,0,1,10,14.5H38a6.69,6.69,0,0,1,6.55,6.12l1,15A5.43,5.43,0,0,1,41.69,41Z"/>
</svg>
