<svg id="Layer_1" data-name="Layer 1" xmlns="http://www.w3.org/2000/svg" width="64" height="64" viewBox="0 0 64 64">
  <title>handcrafted</title>
  <path id="Combined-Shape-6" d="M32,44.63,14.65,40,9.47,59.31l9.48-.57L26.87,64,32,44.8,37.15,64l7.92-5.23,9.48.57L49.37,40Z" fill="#f0eeee"/>
  <path id="Shape" d="M28.47,48.43A4.38,4.38,0,0,1,30.8,50c.3.32.94,1,1.17,1s.86-.66,1.17-1a4.39,4.39,0,0,1,2.33-1.55,4.63,4.63,0,0,1,2.74.79,4.28,4.28,0,0,0,1.33.56c.24-.08.63-.89.82-1.28a4.44,4.44,0,0,1,1.72-2.22,4.85,4.85,0,0,1,2.83-.09,7.43,7.43,0,0,0,1.17.15.71.71,0,0,0,.31,0,4,4,0,0,0,.35-1.45,4.5,4.5,0,0,1,1-2.66,4.5,4.5,0,0,1,2.65-1,4,4,0,0,0,1.45-.36,4,4,0,0,0-.11-1.48,4.52,4.52,0,0,1,.09-2.83A4.41,4.41,0,0,1,54,34.84c.39-.19,1.2-.58,1.28-.8a4.06,4.06,0,0,0-.56-1.36A4.54,4.54,0,0,1,54,30a4.39,4.39,0,0,1,1.5-2.3c.32-.3,1-.94,1-1.17s-.66-.86-1-1.17A4.4,4.4,0,0,1,53.92,23a4.54,4.54,0,0,1,.79-2.73,4,4,0,0,0,.56-1.36c-.08-.21-.89-.61-1.28-.8a4.42,4.42,0,0,1-2.22-1.72,4.52,4.52,0,0,1-.09-2.83,4,4,0,0,0,.11-1.48,4,4,0,0,0-1.45-.36,4.5,4.5,0,0,1-2.66-1,4.5,4.5,0,0,1-1-2.66,4,4,0,0,0-.36-1.45.7.7,0,0,0-.31,0,7.29,7.29,0,0,0-1.17.15A4.84,4.84,0,0,1,42,6.65a4.42,4.42,0,0,1-1.72-2.22c-.19-.39-.58-1.2-.8-1.28a4.13,4.13,0,0,0-1.36.56,4.61,4.61,0,0,1-2.73.79A4.39,4.39,0,0,1,33.14,3c-.3-.32-.94-1-1.17-1s-.87.66-1.17,1a4.39,4.39,0,0,1-2.33,1.55,4.57,4.57,0,0,1-2.74-.8,4.3,4.3,0,0,0-1.34-.56c-.24.08-.63.89-.82,1.28a4.43,4.43,0,0,1-1.72,2.22A4.85,4.85,0,0,1,19,6.76a7.31,7.31,0,0,0-1.17-.15.67.67,0,0,0-.31,0,4,4,0,0,0-.36,1.45,4.49,4.49,0,0,1-1,2.66,4.49,4.49,0,0,1-2.66,1,4,4,0,0,0-1.45.36,4,4,0,0,0,.11,1.48,4.52,4.52,0,0,1-.09,2.83,4.43,4.43,0,0,1-2.22,1.72c-.39.19-1.2.58-1.28.8a4,4,0,0,0,.56,1.36A4.54,4.54,0,0,1,10,23a4.4,4.4,0,0,1-1.55,2.33c-.32.3-1,.94-1,1.17s.66.87,1,1.17A4.39,4.39,0,0,1,10,30a4.54,4.54,0,0,1-.79,2.73,4,4,0,0,0-.56,1.36c.08.21.89.61,1.28.8a4.42,4.42,0,0,1,2.22,1.72,4.53,4.53,0,0,1,.09,2.83,4,4,0,0,0-.11,1.48,4,4,0,0,0,1.45.36,4.5,4.5,0,0,1,2.66,1,4.5,4.5,0,0,1,1,2.66,4,4,0,0,0,.36,1.45.74.74,0,0,0,.31,0,7.31,7.31,0,0,0,1.17-.15,4.85,4.85,0,0,1,2.83.09,4.43,4.43,0,0,1,1.72,2.22c.19.39.58,1.2.8,1.28a4.18,4.18,0,0,0,1.36-.56,5.23,5.23,0,0,1,2.37-.82Zm18.25-.16a3.12,3.12,0,0,1-.68.07,7.81,7.81,0,0,1-1.52-.18A7.09,7.09,0,0,0,43.35,48a1.56,1.56,0,0,0-.4,0c-.17.09-.37.37-.75,1.15l-.08.16c-.19.39-.31.62-.46.89a4.9,4.9,0,0,1-.38.58,2.26,2.26,0,0,1-1.16.84l-.3.1h-.35A3.25,3.25,0,0,1,38,51.38c-.25-.11-.45-.22-.85-.43a3.41,3.41,0,0,0-1.48-.58c-.18,0-.46.23-1.1.9-.38.39-.56.58-.79.79a5.1,5.1,0,0,1-.53.43,2.27,2.27,0,0,1-2.75,0,5.09,5.09,0,0,1-.53-.43c-.23-.21-.42-.4-.71-.7-.72-.75-1-1-1.18-1a3.2,3.2,0,0,0-1.35.62l-.33.17-.22.12a3.77,3.77,0,0,1-1.82.55H24l-.33-.12a2.22,2.22,0,0,1-1.11-.86,5.16,5.16,0,0,1-.36-.56c-.15-.26-.27-.49-.45-.88l-.08-.16c-.38-.79-.59-1.07-.75-1.16a1.46,1.46,0,0,0-.4,0,7.12,7.12,0,0,0-1.17.13,7.88,7.88,0,0,1-1.52.18,3.31,3.31,0,0,1-.53,0h-.48l-.55-.45a2.3,2.3,0,0,1-.85-1.4,7,7,0,0,1-.17-.75,6,6,0,0,0-.1-.66c0-.3-.07-.48-.1-.64a1.86,1.86,0,0,0-.29-.87c-.14-.14-.51-.25-1.52-.39l-.65-.1a7.06,7.06,0,0,1-.75-.17,2.29,2.29,0,0,1-1.32-.81l-.1-.17a2.27,2.27,0,0,1-.34-1.27,5.11,5.11,0,0,1,0-.65,6.22,6.22,0,0,1,.15-1c.18-1,.19-1.39.1-1.57s-.37-.37-1.16-.75l-.16-.08-.6-.3-.34-.19a4.81,4.81,0,0,1-.53-.35,2.21,2.21,0,0,1-.82-1.07l-.07-.24a2.32,2.32,0,0,1,.12-1.43,6.49,6.49,0,0,1,.28-.67l.1-.2.24-.45.11-.2A2.73,2.73,0,0,0,8,30.28c0-.19-.24-.47-1-1.18l-.45-.44-.1-.19A5.75,5.75,0,0,1,6,27.92a2.28,2.28,0,0,1,0-2.81,5.1,5.1,0,0,1,.43-.53c.21-.23.39-.41.7-.71.75-.72,1-1,1-1.18a2.72,2.72,0,0,0-.47-1.27l-.11-.2c-.2-.37-.32-.6-.44-.86a5.13,5.13,0,0,1-.23-.6,2.28,2.28,0,0,1-.08-1.28l.07-.24a2.21,2.21,0,0,1,.81-1.08,4.77,4.77,0,0,1,.53-.35l.34-.19.6-.3c.93-.45,1.22-.65,1.31-.83a1.29,1.29,0,0,0,0-.6q0-.44-.13-.87l-.08-.43-.05-.35a6.83,6.83,0,0,1-.07-.74A2.3,2.3,0,0,1,10.47,11l.14-.2a2.3,2.3,0,0,1,1.3-.8,7,7,0,0,1,.75-.17l.66-.1c1-.14,1.37-.25,1.52-.39s.25-.51.39-1.52a2.69,2.69,0,0,1,.1-.65,7,7,0,0,1,.14-.72,2.29,2.29,0,0,1,.81-1.32c.33-.28.34-.27.35-.23l.19-.09.35-.11a3.12,3.12,0,0,1,.68-.07,7.85,7.85,0,0,1,1.52.18,7.11,7.11,0,0,0,1.17.13,1.53,1.53,0,0,0,.4,0c.17-.09.37-.37.75-1.16l.08-.16c.13-.27.2-.42.31-.61s.16-.3.25-.43a2.41,2.41,0,0,1,1.45-1.27l.3-.1h.32a3.73,3.73,0,0,1,1.83.56l.19.1.25.13c.89.48,1.28.61,1.48.58s.47-.24,1.18-1l.44-.45L30,1a5.74,5.74,0,0,1,.55-.46,2.29,2.29,0,0,1,2.88,0A5.74,5.74,0,0,1,34,1l.18.17.44.45c.71.74,1,1,1.18,1A4,4,0,0,0,37.24,2l.25-.13.23-.12a3.78,3.78,0,0,1,1.82-.54h.34l.32.11a2.22,2.22,0,0,1,1.12.86,5.16,5.16,0,0,1,.36.56c.15.26.27.5.45.88.45.93.65,1.22.83,1.31a1.46,1.46,0,0,0,.4,0,7,7,0,0,0,1.17-.13A7.87,7.87,0,0,1,46,4.64a3.12,3.12,0,0,1,.68.07l.33.1.16.07c.07,0,.07,0-.85-.19l1.26.44a2.29,2.29,0,0,1,.84,1.3,7,7,0,0,1,.17.75,6,6,0,0,0,.1.66c0,.3.07.47.1.64a1.86,1.86,0,0,0,.29.87c.14.14.51.25,1.52.39l.65.1A7,7,0,0,1,52,10a2.3,2.3,0,0,1,1.31.8l.11.17a2.27,2.27,0,0,1,.35,1.28,5.09,5.09,0,0,1,0,.65,6.07,6.07,0,0,1-.15,1c-.18,1-.19,1.39-.1,1.57s.38.38,1.31.83l.6.3.34.19a4.78,4.78,0,0,1,.53.35,2.21,2.21,0,0,1,.82,1.08l.07.23a2.28,2.28,0,0,1-.08,1.29,5.15,5.15,0,0,1-.23.6c-.12.27-.23.48-.44.86-.49.91-.61,1.27-.58,1.48s.23.46.9,1.1c.39.38.58.56.78.79a5.1,5.1,0,0,1,.43.53,2.27,2.27,0,0,1,0,2.75,5.1,5.1,0,0,1-.43.53c-.21.23-.39.41-.7.71-.75.72-1,1-1,1.18a2.72,2.72,0,0,0,.47,1.28l.11.2c.2.38.31.6.44.86a5.16,5.16,0,0,1,.23.59,2.27,2.27,0,0,1,.08,1.29l-.07.23a2.21,2.21,0,0,1-.82,1.08,4.76,4.76,0,0,1-.53.35l-.35.19-.6.3c-.93.45-1.22.65-1.31.83s-.08.56.1,1.57l.06.34.05.35a6.82,6.82,0,0,1,.07.74,2.31,2.31,0,0,1-.35,1.5l-.14.2A2.3,2.3,0,0,1,52,43a7,7,0,0,1-.76.17l-.65.1-.64.1a1.86,1.86,0,0,0-.87.29c-.14.14-.25.51-.39,1.52a2.61,2.61,0,0,1-.1.65,7.12,7.12,0,0,1-.16.75,2.29,2.29,0,0,1-.81,1.32l-.55.45a.45.45,0,0,0-.34-.07Z" fill="#d3d3d3"/>
  <path d="M28.47,48.43A4.38,4.38,0,0,1,30.8,50c.3.32.94,1,1.17,1s.86-.66,1.17-1a4.39,4.39,0,0,1,2.33-1.55,4.63,4.63,0,0,1,2.74.79,4.28,4.28,0,0,0,1.33.56c.24-.08.63-.89.82-1.28a4.44,4.44,0,0,1,1.72-2.22,4.85,4.85,0,0,1,2.83-.09,7.43,7.43,0,0,0,1.17.15.71.71,0,0,0,.31,0,4,4,0,0,0,.35-1.45,4.5,4.5,0,0,1,1-2.66,4.5,4.5,0,0,1,2.65-1,4,4,0,0,0,1.45-.36,4,4,0,0,0-.11-1.48,4.52,4.52,0,0,1,.09-2.83A4.41,4.41,0,0,1,54,34.84c.39-.19,1.2-.58,1.28-.8a4.06,4.06,0,0,0-.56-1.36A4.54,4.54,0,0,1,54,30a4.39,4.39,0,0,1,1.5-2.3c.32-.3,1-.94,1-1.17s-.66-.86-1-1.17A4.4,4.4,0,0,1,53.92,23a4.54,4.54,0,0,1,.79-2.73,4,4,0,0,0,.56-1.36c-.08-.21-.89-.61-1.28-.8a4.42,4.42,0,0,1-2.22-1.72,4.52,4.52,0,0,1-.09-2.83,4,4,0,0,0,.11-1.48,4,4,0,0,0-1.45-.36,4.5,4.5,0,0,1-2.66-1,4.5,4.5,0,0,1-1-2.66,4,4,0,0,0-.36-1.45.7.7,0,0,0-.31,0,7.29,7.29,0,0,0-1.17.15A4.84,4.84,0,0,1,42,6.65a4.42,4.42,0,0,1-1.72-2.22c-.19-.39-.58-1.2-.8-1.28a4.13,4.13,0,0,0-1.36.56,4.61,4.61,0,0,1-2.73.79A4.39,4.39,0,0,1,33.14,3c-.3-.32-.94-1-1.17-1s-.87.66-1.17,1a4.39,4.39,0,0,1-2.33,1.55,4.57,4.57,0,0,1-2.74-.8,4.3,4.3,0,0,0-1.34-.56c-.24.08-.63.89-.82,1.28a4.43,4.43,0,0,1-1.72,2.22A4.85,4.85,0,0,1,19,6.76a7.31,7.31,0,0,0-1.17-.15.67.67,0,0,0-.31,0,4,4,0,0,0-.36,1.45,4.49,4.49,0,0,1-1,2.66,4.49,4.49,0,0,1-2.66,1,4,4,0,0,0-1.45.36,4,4,0,0,0,.11,1.48,4.52,4.52,0,0,1-.09,2.83,4.43,4.43,0,0,1-2.22,1.72c-.39.19-1.2.58-1.28.8a4,4,0,0,0,.56,1.36A4.54,4.54,0,0,1,10,23a4.4,4.4,0,0,1-1.55,2.33c-.32.3-1,.94-1,1.17s.66.87,1,1.17A4.39,4.39,0,0,1,10,30a4.54,4.54,0,0,1-.79,2.73,4,4,0,0,0-.56,1.36c.08.21.89.61,1.28.8a4.42,4.42,0,0,1,2.22,1.72,4.53,4.53,0,0,1,.09,2.83,4,4,0,0,0-.11,1.48,4,4,0,0,0,1.45.36,4.5,4.5,0,0,1,2.66,1,4.5,4.5,0,0,1,1,2.66,4,4,0,0,0,.36,1.45.74.74,0,0,0,.31,0,7.31,7.31,0,0,0,1.17-.15,4.85,4.85,0,0,1,2.83.09,4.43,4.43,0,0,1,1.72,2.22c.19.39.58,1.2.8,1.28a4.18,4.18,0,0,0,1.36-.56,5.23,5.23,0,0,1,2.37-.82Z" fill="#fff"/>
  <path d="M43.74,24.76a2.8,2.8,0,0,0-1.13-.69l.18-.18a3,3,0,0,0,.92-2.06,2.82,2.82,0,0,0-.84-2.1,2.88,2.88,0,0,0-1.09-.68,3.06,3.06,0,0,0,.46-1.73,2.71,2.71,0,0,0-.95-2,3.29,3.29,0,0,0-3.57-.14,2.85,2.85,0,0,0-.77-1.39A2.8,2.8,0,0,0,34.81,13a3.12,3.12,0,0,0-2.06.93l-5.28,5.15a10.44,10.44,0,0,0-.09-2c-.28-1.8-1.31-2.86-2.83-2.89h-.08c-2.34,0-2.81,2.06-3.15,4.54l-.21,1.62c-.09.71-.17,1.29-.26,1.88a45.56,45.56,0,0,1-.92,4.57c-1.12,4.41-.38,7.72,2.32,10.42A9.38,9.38,0,0,0,28.72,40H29a8.59,8.59,0,0,0,6.15-2.5L43.64,29a3.12,3.12,0,0,0,.93-2.07A2.8,2.8,0,0,0,43.74,24.76Zm-1.16,3.13L34,36.42a7,7,0,0,1-5.29,2.06,7.9,7.9,0,0,1-5.4-2.32c-2.32-2.32-2.92-5.1-1.93-9a47.21,47.21,0,0,0,.95-4.71c.09-.6.17-1.19.27-1.92l.21-1.61c.42-3.11.89-3.25,1.71-3.24.31,0,1.13,0,1.37,1.61a15.14,15.14,0,0,1,0,3.5v.12l-.16,2,8-7.93a1.63,1.63,0,0,1,1.08-.49,1.3,1.3,0,0,1,1,.39,1.34,1.34,0,0,1,.29,1.5,1.66,1.66,0,0,1-.36.54l-6.69,6.69,1.06,1.06L36.87,18a6.78,6.78,0,0,1,.8-.77c.71-.67,1.94-1.32,2.64-.72a1.22,1.22,0,0,1,.42.9,1.59,1.59,0,0,1-.46,1.17L32.87,26l1.06,1,6.54-6.55a1.36,1.36,0,0,1,1.7,1.35,1.56,1.56,0,0,1-.48,1L35,29.47l1.06,1.06,5-5a1.37,1.37,0,0,1,1.59.23,1.44,1.44,0,0,1,0,2Z" fill="#010101"/>
</svg>
