<svg id="Layer_1" data-name="Layer 1" xmlns="http://www.w3.org/2000/svg" width="22" height="22" viewBox="0 0 22 22">
  <title>heart-outline</title>
  <path id="Heart-_icon_" data-name="Heart-(icon)" d="M16.43,11.86C17.92,10.33,19,9.58,19,8a3.42,3.42,0,0,0-6.31-1.82L11,8.08,9.31,6.17A3.42,3.42,0,0,0,3,8c0,1.58,1,2.28,2.55,3.86L11,17.41ZM11,5.11a5.22,5.22,0,0,1,4.58-2.53A5.24,5.24,0,0,1,21,8c0,3-2.09,4.18-3.13,5.26l-5.56,5.67a2,2,0,0,1-2.63,0L4.13,13.25C3,12.05,1,11.08,1,8A5.36,5.36,0,0,1,6.42,2.58,5.79,5.79,0,0,1,11,5.11Z"/>
</svg>
