<svg id="Layer_1" data-name="Layer 1" xmlns="http://www.w3.org/2000/svg" width="22" height="22" viewBox="0 0 22 22">
  <path id="instagram" class="cls-1"
        d="M6.88,1.06a7.31,7.31,0,0,0-2.43.46A4.88,4.88,0,0,0,2.68,2.68,4.89,4.89,0,0,0,1.52,4.45a7.31,7.31,0,0,0-.46,2.43C1,7.94,1,8.28,1,11s0,3.06.06,4.12a7.3,7.3,0,0,0,.46,2.43,4.89,4.89,0,0,0,1.15,1.77,4.9,4.9,0,0,0,1.77,1.15,7.35,7.35,0,0,0,2.43.47C7.94,21,8.28,21,11,21s3.06,0,4.12-.06a7.35,7.35,0,0,0,2.43-.47,5.1,5.1,0,0,0,2.93-2.92,7.39,7.39,0,0,0,.47-2.43c0-1.07.06-1.41.06-4.12s0-3.06-.06-4.12a7.39,7.39,0,0,0-.47-2.43,4.93,4.93,0,0,0-1.15-1.77,4.89,4.89,0,0,0-1.77-1.15,7.31,7.31,0,0,0-2.43-.46C14.06,1,13.72,1,11,1s-3.06,0-4.12.06M7,19.14a5.56,5.56,0,0,1-1.9-.34A3.13,3.13,0,0,1,4,18a3.11,3.11,0,0,1-.8-1.1A5.57,5.57,0,0,1,2.86,15c0-1.06-.06-1.37-.06-4s0-3,.06-4A5.58,5.58,0,0,1,3.2,5.1,3.1,3.1,0,0,1,4,4a3.1,3.1,0,0,1,1.1-.8A5.5,5.5,0,0,1,7,2.86c1.05,0,1.37-.06,4-.06s3,0,4,.06a5.52,5.52,0,0,1,1.86.34A3.09,3.09,0,0,1,18,4a3.1,3.1,0,0,1,.8,1.1A5.53,5.53,0,0,1,19.14,7c0,1.05.06,1.37.06,4s0,3-.06,4a5.52,5.52,0,0,1-.34,1.86,3.33,3.33,0,0,1-1.9,1.9A5.58,5.58,0,0,1,15,19.1c-1.05,0-1.37.06-4,.06s-3,0-4-.06m8.1-13.44a1.2,1.2,0,1,0,1.2-1.2h0a1.2,1.2,0,0,0-1.2,1.2M5.86,11A5.14,5.14,0,1,0,11,5.86h0A5.13,5.13,0,0,0,5.86,11s0,0,0,0m1.8,0A3.33,3.33,0,1,1,11,14.33,3.33,3.33,0,0,1,7.66,11"/>
</svg>
