<svg id="Layer_1" data-name="Layer 1" xmlns="http://www.w3.org/2000/svg" width="64" height="64" viewBox="0 0 64 64">
  <title>network</title>
  <polygon id="Line-2" points="52.31 11.54 51.54 9.69 10.64 26.69 42.59 54.91 43.91 53.41 14.36 27.31 52.31 11.54" fill="#eeedee"/>
  <circle cx="51" cy="13" r="11" fill="#fff"/>
  <circle cx="43" cy="51" r="11" fill="#fff"/>
  <path id="Oval-4" d="M51,24A11,11,0,1,0,40,13,11,11,0,0,0,51,24Zm0,2A13,13,0,1,1,64,13,13,13,0,0,1,51,26Z" fill="#d3d3d3"/>
  <path id="Oval-4-2" d="M43,62A11,11,0,1,0,32,51,11,11,0,0,0,43,62Zm0,2A13,13,0,1,1,56,51,13,13,0,0,1,43,64Z" fill="#d3d3d3"/>
  <path id="Oval-4-3" d="M13,38A11,11,0,1,0,2,27,11,11,0,0,0,13,38Zm0,2A13,13,0,1,1,26,27,13,13,0,0,1,13,40Z" fill="#d3d3d3"/>
  <path id="Combined-Shape" d="M51,18.14a39.86,39.86,0,0,0,4.31-.19l-.13-1a.91.91,0,0,0-.22-.33l-1.73-1.07a3.46,3.46,0,0,1-.49-.21A2,2,0,0,1,51.5,13.5,2.73,2.73,0,0,1,52,12a3.28,3.28,0,0,1,.34-.5l.32-.44A1.9,1.9,0,0,0,53,10c0-1.48-.64-2.51-1.83-2.51A2.2,2.2,0,0,0,48.94,10a1.62,1.62,0,0,0,.31,1.15,6.72,6.72,0,0,1,.78.8,2.66,2.66,0,0,1,.46,1.6,2,2,0,0,1-.94,1.67,3.29,3.29,0,0,1-.5.31l-2,1.12a1,1,0,0,0-.22.35l-.13,1A39.86,39.86,0,0,0,51,18.14ZM54.56,10a5,5,0,0,1-1.2,2.75,1.59,1.59,0,0,0-.36.79c0,.47.84.67.84.67l1.91,1.18a2.19,2.19,0,0,1,.92,1.39L57,19.16s-1.2.47-6,.47-6-.47-6-.47l.33-2.38a2.27,2.27,0,0,1,.91-1.42l2.09-1.16s.67-.32.67-.67a1.26,1.26,0,0,0-.22-.79A3.15,3.15,0,0,1,47.44,10a3.69,3.69,0,0,1,3.78-4C53.84,6,54.56,8.46,54.56,10Z" fill="#010101"/>
  <path id="Combined-Shape-2" d="M43,56.32a39.86,39.86,0,0,0,4.31-.19l-.13-1A.91.91,0,0,0,47,54.8l-1.73-1.07a3.46,3.46,0,0,1-.49-.21,2,2,0,0,1-1.24-1.84A2.73,2.73,0,0,1,44,50.2a3.28,3.28,0,0,1,.34-.5l.32-.44A1.9,1.9,0,0,0,45,48.19c0-1.48-.64-2.51-1.83-2.51a2.2,2.2,0,0,0-2.28,2.51,1.62,1.62,0,0,0,.31,1.15,6.72,6.72,0,0,1,.78.8,2.66,2.66,0,0,1,.46,1.6,2,2,0,0,1-.94,1.67,3.29,3.29,0,0,1-.5.31l-2,1.12a1,1,0,0,0-.22.35l-.13,1A39.86,39.86,0,0,0,43,56.32Zm3.56-8.13a5,5,0,0,1-1.2,2.75,1.59,1.59,0,0,0-.36.79c0,.47.84.67.84.67l1.91,1.18A2.19,2.19,0,0,1,48.67,55L49,57.35s-1.2.47-6,.47-6-.47-6-.47L37.33,55a2.27,2.27,0,0,1,.91-1.42l2.09-1.16s.67-.32.67-.67a1.26,1.26,0,0,0-.22-.79,3.15,3.15,0,0,1-1.33-2.75,3.69,3.69,0,0,1,3.78-4C45.85,44.18,46.56,46.64,46.56,48.19Z" fill="#010101"/>
  <circle cx="13" cy="27" r="11" fill="#fff"/>
  <path id="Combined-Shape-3" d="M13,32.32a39.86,39.86,0,0,0,4.31-.19l-.13-1A.91.91,0,0,0,17,30.8l-1.73-1.07a3.46,3.46,0,0,1-.49-.21,2,2,0,0,1-1.24-1.84A2.73,2.73,0,0,1,14,26.2a3.28,3.28,0,0,1,.34-.5c.21-.28.24-.32.32-.44A1.9,1.9,0,0,0,15,24.19c0-1.48-.64-2.51-1.83-2.51a2.2,2.2,0,0,0-2.28,2.51,1.62,1.62,0,0,0,.31,1.15,6.72,6.72,0,0,1,.78.8,2.66,2.66,0,0,1,.46,1.6,2,2,0,0,1-.94,1.67,3.29,3.29,0,0,1-.5.31L9,30.84a1,1,0,0,0-.22.35l-.13,1A39.86,39.86,0,0,0,13,32.32Zm3.56-8.13a5,5,0,0,1-1.2,2.75,1.59,1.59,0,0,0-.36.79c0,.47.84.67.84.67l1.91,1.18A2.19,2.19,0,0,1,18.67,31L19,33.35s-1.2.47-6,.47-6-.47-6-.47L7.33,31a2.27,2.27,0,0,1,.91-1.42l2.09-1.16s.67-.32.67-.67a1.26,1.26,0,0,0-.22-.79,3.15,3.15,0,0,1-1.33-2.75,3.69,3.69,0,0,1,3.78-4C15.85,20.18,16.56,22.64,16.56,24.19Z" fill="#010101"/>
</svg>
