<svg id="Layer_1" data-name="Layer 1" xmlns="http://www.w3.org/2000/svg" width="28" height="28" viewBox="0 0 28 28">
  <title>paypal</title>
  <path id="p" d="M21.88,7.33a4.94,4.94,0,0,0-1-4.43C19.74,1.63,17.6,1,15,1H7.29a1.11,1.11,0,0,0-1.11.95L3,22.21a.67.67,0,0,0,.54.78H8.4l1.19-7.52v.24a1.11,1.11,0,0,1,1.11-.95h2.22c4.44,0,7.93-1.82,8.88-7,0-.16.08-.32.08-.47" fill="#3b7de9"/>
  <path id="ph" d="M7,24.36H9.39l-.32,2a.56.56,0,0,0,.5.62h4.06a.94.94,0,0,0,1-.78V26l.8-4.66.08-.23a.94.94,0,0,1,1-.78H17c3.9,0,6.92-1.55,7.79-6A5,5,0,0,0,24,9.83,3.72,3.72,0,0,0,23,9a3.58,3.58,0,0,0-.1.44c-1,5.05-4.45,6.84-8.91,6.84H11.72a1.11,1.11,0,0,0-1.11.93V17l-1.2,7.36Z" fill="#169ad7" opacity="0.7" style="isolation: isolate"/>
</svg>
