<svg id="Layer_1" data-name="Layer 1" xmlns="http://www.w3.org/2000/svg" width="22" height="22" viewBox="0 0 22 22">
  <path id="Pin-_icon_" data-name="Pin- icon " class="cls-1"
        d="M3.18,9.59C3.18,4.85,6.67,1,11,1s7.79,3.85,7.79,8.59a9,9,0,0,1-2.27,6.06l-.35.36-3.6,4.31a2.17,2.17,0,0,1-3.07.09l-.09-.09-3.48-4.2A9,9,0,0,1,3.18,9.59Zm1.73,0A7,7,0,0,0,7,14.67l3.55,4.27a.55.55,0,0,0,.77,0L15,14.59l.27-.28A7,7,0,0,0,17,9.59c0-3.69-2.68-6.68-6-6.68S4.91,5.9,4.91,9.59ZM11,12.43A2.74,2.74,0,0,1,8.4,9.57,2.74,2.74,0,0,1,11,6.72a2.74,2.74,0,0,1,2.6,2.86A2.74,2.74,0,0,1,11,12.43Z"/>
</svg>
