<svg xmlns="http://www.w3.org/2000/svg" width="13" height="10">
  <path fill-rule="nonzero" d="M11.2272727 2.363636H9.4545455V0H1.1818182C.5318182 0 0 .5318182 0 1.181818v6.5h1.1818182c0 .980909.7918182 1.772727 1.7727273 1.772727.980909 0 1.7727272-.791818 1.7727272-1.772727h3.5454546c0 .980909.7918182 1.772727 1.7727272 1.772727.9809091 0 1.7727273-.791818 1.7727273-1.772727H13V4.727273l-1.7727273-2.363637zM2.9545455 8.568182c-.4904546 0-.8863637-.395909-.8863637-.886364 0-.490454.3959091-.886363.8863637-.886363.4904545 0 .8863636.395909.8863636.886363 0 .490455-.3959091.886364-.8863636.886364zM10.9318182 3.25L12.09 4.727273H9.4545455V3.25h1.4772727zm-.8863637 5.318182c-.4904545 0-.8863636-.395909-.8863636-.886364 0-.490454.3959091-.886363.8863636-.886363.4904546 0 .8863637.395909.8863637.886363 0 .490455-.3959091.886364-.8863637.886364z"/>
</svg>
