<svg id="Layer_1" data-name="Layer 1" xmlns="http://www.w3.org/2000/svg" width="22" height="22" viewBox="0 0 22 22">
  <path id="Sales-_icon_" data-name="Sales- icon " d="M11,21A10,10,0,1,1,21,11,10,10,0,0,1,11,21Zm-.84-5.75h0v.54a.72.72,0,0,0,1.43,0v-.54a2.18,2.18,0,0,0,1.91-2.33c0-1.37-.75-2.15-2.45-2.61C9.94,10,9.68,9.74,9.68,9.09a1.12,1.12,0,0,1,1.2-1,2.86,2.86,0,0,1,1.29.28,1.93,1.93,0,0,1,.29.18h.06a.72.72,0,0,0,1-1,2.84,2.84,0,0,0-.72-.49,4.09,4.09,0,0,0-1.22-.38V6.21a.72.72,0,0,0-1.43,0v.57a2.47,2.47,0,0,0-1.91,2.3c0,1.37.75,2.15,2.45,2.61,1.12.3,1.38.57,1.38,1.22s-.28,1-1.2,1a2.16,2.16,0,0,1-1.13-.26.9.9,0,0,1-.19-.14.72.72,0,0,0-1.26.69l.07.11a2,2,0,0,0,.65.58A3.22,3.22,0,0,0,10.16,15.25Z" />
</svg>
