<svg id="Layer_1" data-name="Layer 1" xmlns="http://www.w3.org/2000/svg" width="22" height="22" viewBox="0 0 22 22">
  <path id="Sales-_icon_" data-name="Sales-(icon)" class="cls-1"
        d="M11,21A10,10,0,1,1,21,11,10,10,0,0,1,11,21Zm0-2a8,8,0,1,0-8-8A8,8,0,0,0,11,19Zm-.84-3.75A3.22,3.22,0,0,1,9,14.84a2,2,0,0,1-.65-.58.72.72,0,1,1,1.19-.8.9.9,0,0,0,.19.14,2.16,2.16,0,0,0,1.13.26c.92,0,1.2-.28,1.2-1s-.26-.92-1.38-1.22C9,11.24,8.25,10.46,8.25,9.09a2.47,2.47,0,0,1,1.91-2.3V6.21a.72.72,0,0,1,1.43,0v.54a4.09,4.09,0,0,1,1.22.38,2.84,2.84,0,0,1,.72.49.72.72,0,0,1-1,1l-.06,0a1.93,1.93,0,0,0-.29-.18,2.86,2.86,0,0,0-1.29-.28,1.12,1.12,0,0,0-1.2,1c0,.65.26.92,1.38,1.22,1.7.45,2.45,1.24,2.45,2.61a2.18,2.18,0,0,1-1.91,2.33v.54a.72.72,0,0,1-1.43,0v-.54Z"/>
</svg>
