<svg id="Layer_1" data-name="Layer 1" xmlns="http://www.w3.org/2000/svg" width="34" height="34" viewBox="0 0 34 34">
  <title>sales-alt</title>
  <path id="Line" d="M3.71,31.71l29-29a1,1,0,0,0-1.41-1.41l-29,29a1,1,0,0,0,1.41,1.41Z" fill="#d3d3d3"/>
  <circle id="Oval-5" cx="17" cy="17" r="6" fill="#fafbfc"/>
  <path id="Combined-Shape" d="M17,25a8,8,0,1,1,8-8A8,8,0,0,1,17,25Zm-1.8-4.51a2.92,2.92,0,0,0,1,.37v.49a.65.65,0,0,0,1.3,0v-.49a2,2,0,0,0,1.74-2.12c0-1.24-.68-2-2.22-2.37-1-.27-1.25-.52-1.25-1.11a1,1,0,0,1,1.09-.87,2.6,2.6,0,0,1,1.18.26,1.76,1.76,0,0,1,.27.16l.05,0a.65.65,0,0,0,.92-.92,2.58,2.58,0,0,0-.66-.45,3.72,3.72,0,0,0-1.11-.35v-.49a.65.65,0,0,0-1.3,0v.52a2.25,2.25,0,0,0-1.74,2.09c0,1.24.68,2,2.22,2.37,1,.27,1.25.52,1.25,1.11s-.25.87-1.09.87a2,2,0,0,1-1-.23.82.82,0,0,1-.17-.13.65.65,0,0,0-1.09.72A1.84,1.84,0,0,0,15.2,20.49Z" fill="#8ebd55"/>
  <circle id="Oval-4" cx="31" cy="3" r="3" fill="#9f9f9f"/>
  <circle id="Oval-4-2" data-name="Oval-4" cx="3" cy="31" r="3" fill="#9f9f9f"/>
</svg>
