<svg id="Layer_1" data-name="Layer 1" xmlns="http://www.w3.org/2000/svg" width="64" height="64" viewBox="0 0 64 64">
  <title>secure</title>
  <rect id="path-3" x="6.45" y="4.03" width="57" height="44" rx="6" ry="6" fill="#fff"/>
  <rect x="7.45" y="5.03" width="55" height="42" rx="6" ry="6" fill="none" stroke="#d3d3d3" stroke-width="2"/>
  <rect id="Rectangle-9" x="8.45" y="12.03" width="53" height="8" fill="#d3d3d3"/>
  <path id="Combined-Shape-4" d="M37.45,30h20v2h-20Zm7,7h13v2h-13Zm-10,0h8v2h-8Z" fill="#eeedee"/>
  <path d="M31.95,36a4.25,4.25,0,0,1,.88-2.46,5.29,5.29,0,0,1,.87-1l1.66-1.32L28.84,24H7.06L.55,31.27l1.66,1.32a5.29,5.29,0,0,1,.87,1A4.25,4.25,0,0,1,3.95,36c0,.89-.15,1.4-1.14,4.29A19.3,19.3,0,0,0,1.45,47a7.76,7.76,0,0,0,2.39,5.9,6.5,6.5,0,0,0,2.61,1.52l.74.21c.57.17,1.21.37,1.89.62a36.15,36.15,0,0,1,5.74,2.61,22.38,22.38,0,0,1,2,1.28L18,60l1.15-.8q1-.67,2-1.28a36.15,36.15,0,0,1,5.74-2.61c.69-.25,1.32-.45,1.89-.62l.68-.19a6.52,6.52,0,0,0,2.63-1.54A7.76,7.76,0,0,0,34.45,47a19.3,19.3,0,0,0-1.36-6.71C32.1,37.43,31.95,36.92,31.95,36Zm-3,16.5a37.79,37.79,0,0,0-11,5,37.79,37.79,0,0,0-11-5s-3.5-1-3.5-5.5,2.5-8,2.5-11a7.08,7.08,0,0,0-2.5-5l4.5-5h20l4.5,5a7.08,7.08,0,0,0-2.5,5c0,3,2.5,6.5,2.5,11S28.95,52.53,28.95,52.53Z" fill="#9f9f9f"/>
  <path d="M28.95,52.53a37.79,37.79,0,0,0-11,5,37.79,37.79,0,0,0-11-5s-3.5-1-3.5-5.5,2.5-8,2.5-11a7.08,7.08,0,0,0-2.5-5l4.5-5h20l4.5,5a7.08,7.08,0,0,0-2.5,5c0,3,2.5,6.5,2.5,11S28.95,52.53,28.95,52.53Z" fill="#fff"/>
  <path id="Combined-Shape-5" d="M17.95,50a8.5,8.5,0,1,1,8.5-8.5A8.5,8.5,0,0,1,17.95,50Zm-2.79-9a1,1,0,0,0-1.52,1.3l.11.11,2.7,2.84,5.71-5.79A1,1,0,0,0,20.74,38l-4.29,4.25Z" fill="#010101"/>
</svg>
