<svg id="Layer_1" data-name="Layer 1" xmlns="http://www.w3.org/2000/svg" width="28" height="28" viewBox="0 0 28 28">
  <path id="user" d="M18.24,13.33a4.27,4.27,0,0,0-.56,1.77,1.76,1.76,0,0,0,1.08,1.46l.07,0A43.39,43.39,0,0,1,23,18.9a4.19,4.19,0,0,1,1.75,2.66l.64,4.54S23.13,27,14,27,2.5,26.1,2.5,26.1l.64-4.54a4.33,4.33,0,0,1,1.74-2.71,32.36,32.36,0,0,1,4.3-2.43A1.7,1.7,0,0,0,9.88,15a4.7,4.7,0,0,0-.41-1.91A7.69,7.69,0,0,1,7.83,9l0-2.45A5.51,5.51,0,0,1,13.3,1h1.34a5.5,5.5,0,0,1,5.5,5.5V8.93l0,.07A7.63,7.63,0,0,1,18.24,13.33Zm-.84,4.75A3.39,3.39,0,0,1,15.69,15a5.75,5.75,0,0,1,.88-2.78l.33-.45a5.81,5.81,0,0,0,1.22-3.24V6.29A3.54,3.54,0,0,0,14.65,3H13.27A3.59,3.59,0,0,0,9.79,6.29l0,2.29a5.28,5.28,0,0,0,1,2.92l.38.53a7.13,7.13,0,0,1,.68,3,3.6,3.6,0,0,1-1.67,3.16s-1,.46-1.33.64c-.74.38-1.41.77-2.09,1.2-.4.25-.66.42-.89.58a3.2,3.2,0,0,0-.79,1.29l-.37,2.65A74.88,74.88,0,0,0,14,25a74.78,74.78,0,0,0,9.22-.48L22.83,22a2.61,2.61,0,0,0-.65-1.27c-.17-.11-.63-.47-1.07-.73-.74-.44-1.55-.84-2.35-1.24C18.51,18.67,17.63,18.23,17.41,18.08Z" />
</svg>
