<svg xmlns="http://www.w3.org/2000/svg" width="14" height="10">
  <path fill-rule="nonzero" d="M7 0C3.8181818 0 1.1009091 1.9790909 0 4.7727273c1.1009091 2.7936363 3.8181818 4.7727272 7 4.7727272s5.8990909-1.9790909 7-4.7727272C12.8990909 1.9790909 10.1818182 0 7 0zm0 7.9545455c-1.7563636 0-3.1818182-1.4254546-3.1818182-3.1818182 0-1.7563637 1.4254546-3.1818182 3.1818182-3.1818182s3.1818182 1.4254545 3.1818182 3.1818182c0 1.7563636-1.4254546 3.1818182-3.1818182 3.1818182zm0-5.0909091c-1.0563636 0-1.9090909.8527272-1.9090909 1.9090909 0 1.0563636.8527273 1.9090909 1.9090909 1.9090909s1.9090909-.8527273 1.9090909-1.9090909c0-1.0563637-.8527273-1.9090909-1.9090909-1.9090909z"/>
</svg>
