<svg xmlns="http://www.w3.org/2000/svg" xmlns:xlink="http://www.w3.org/1999/xlink"><defs><style>
    .sprite-symbol-usage {display: none;}
    .sprite-symbol-usage:target {display: inline;}
  </style><symbol viewBox="0 0 26 26" id="alert-error"><g fill="none" fill-rule="evenodd"><circle cx="13" cy="13" r="12" stroke="#F95536" stroke-width="2" /><path fill="#F95536" d="M13 6a1.427 1.427 0 0 1 1.425 1.498l-.375 7.503a1.051 1.051 0 0 1-2.1 0l-.375-7.503A1.427 1.427 0 0 1 13 6z" /><circle cx="13" cy="18.5" r="1.5" fill="#F95536" /></g></symbol><symbol viewBox="0 0 26 26" id="alert-notice"><path d="M13 26C5.82 26 0 20.18 0 13S5.82 0 13 0s13 5.82 13 13-5.82 13-13 13zm0-2c6.075 0 11-4.925 11-11S19.075 2 13 2 2 6.925 2 13s4.925 11 11 11zM9.2 7.718a4.308 4.308 0 0 1 1.595-1.268c.64-.3 1.338-.45 2.096-.45.503 0 .982.076 1.436.227s.864.373 1.228.664c.363.29.651.668.863 1.132.212.463.318.986.318 1.568 0 .351-.044.686-.131 1.004a3.378 3.378 0 0 1-.382.882c-.167.27-.337.508-.51.714a8.973 8.973 0 0 1-.613.654l-.445.414c-.194.179-.343.32-.446.423a6.525 6.525 0 0 0-.34.373 1.86 1.86 0 0 0-.278.413c-.06.13-.094.262-.1.396l-.046.818H11.6l-.01-.937c0-.127.008-.25.024-.368.015-.118.045-.238.09-.359l.119-.313a1.51 1.51 0 0 1 .182-.319c.087-.124.153-.218.195-.281.042-.064.121-.163.236-.296.116-.133.194-.223.237-.268a39.068 39.068 0 0 1 .527-.55c.388-.412.683-.79.886-1.132.203-.342.305-.726.305-1.15 0-.515-.155-.917-.464-1.204-.309-.288-.712-.432-1.209-.432-.363 0-.724.097-1.082.29-.357.195-.651.461-.881.8L9.2 7.719zm1.955 10.9c0-.382.137-.709.413-.982.276-.272.61-.409 1.005-.409.382 0 .71.137.986.41.276.272.414.6.414.981s-.138.708-.414.977c-.276.27-.604.405-.986.405-.394 0-.73-.135-1.005-.405a1.317 1.317 0 0 1-.413-.977z" fill="#6298F1" /></symbol><symbol viewBox="0 0 26 26" id="alert-success"><path fill="#8DBC54" d="M13 26C5.82 26 0 20.18 0 13S5.82 0 13 0s13 5.82 13 13-5.82 13-13 13zm0-2c6.075 0 11-4.925 11-11S19.075 2 13 2 2 6.925 2 13s4.925 11 11 11zM8.707 12.543L11 14.75l6.293-6.207a1 1 0 0 1 1.414 1.414L11 17.75l-3.707-3.793a1 1 0 0 1 1.414-1.414z" /></symbol><symbol viewBox="0 0 22 22" id="attachment"><path class="cls-1" d="M15.43 7.54l1.32-1.32-1.3 1.35zM3.55 17.41l-1.32 1.33-.23-.19 1.32-1.32.09.09zm11-9.84l-8.14 8.12a.93.93 0 0 1-1.32-1.32l8.12-8.12a2.5 2.5 0 1 1 3.54 3.54L8 18.55a4.2 4.2 0 0 1-5.85.09 4.2 4.2 0 0 1 .09-5.85l9.15-9.15a5.66 5.66 0 0 1 8 8l-6.29 6.29a.93.93 0 0 1-1.32-1.32L18 10.3A3.77 3.77 0 0 0 12.7 5l-9.15 9.12a2.34 2.34 0 0 0-.09 3.2 2.34 2.34 0 0 0 3.2-.09l8.76-8.76a.63.63 0 1 0-.89-.9z" /></symbol><symbol viewBox="0 0 34 34" id="attending"><g data-name="Attending-(icon)"><path d="M17.21 12.63v2.31a1.58 1.58 0 0 1-1 1.48v.09a32 32 0 0 0 4.36.85 1.09 1.09 0 0 1 0 .3.92.92 0 0 1-.46.76 25.82 25.82 0 0 0-4.58 2.39 4.55 4.55 0 0 0-1.91 3L13 29.4s2.1.73 10.48.73S34 29.4 34 29.4l-.59-5.56a4.44 4.44 0 0 0-1.94-3 34.45 34.45 0 0 0-4.27-2.22 1.29 1.29 0 0 1-.75-1 1.08 1.08 0 0 1 0-.29 32 32 0 0 0 4.36-.85v-.09a1.58 1.58 0 0 1-1-1.48v-2.28a.85.85 0 0 0 .84-.85v-1.66a.84.84 0 0 0-.84-.85h-.1c-.52-3.34-3.1-5.87-6.19-5.87s-5.67 2.53-6.19 5.87h-.1a.84.84 0 0 0-.84.85v1.66a.85.85 0 0 0 .82.85z" fill="#f0eeee" /><path d="M20.79 7.92v1.42a2.66 2.66 0 0 1-.57 4.56 8.94 8.94 0 0 1-2.39 3.72 2.3 2.3 0 0 0-.58 1.44c0 1.05 1.58 1.55 1.59 1.59a50 50 0 0 1 5.37 2.92 4.94 4.94 0 0 1 2.07 3.13L27 32s-2.7 1.06-13.5 1.06S0 32 0 32l.75-5.34a5.1 5.1 0 0 1 2-3.19 38.82 38.82 0 0 1 5.36-3l.28-.11c.45-.2 1.3-.67 1.3-1.44a2.17 2.17 0 0 0-.42-1.23 8.89 8.89 0 0 1-2.5-3.82 2.63 2.63 0 0 1-1.61-2.47 2.6 2.6 0 0 1 1-2.09V7.92a6.49 6.49 0 0 1 6.23-6.48h6.71A2.62 2.62 0 0 0 20.79.9v1.59a3.15 3.15 0 0 1-.87 2.18 6.45 6.45 0 0 1 .87 3.25z" fill="#9f9f9f" /><path data-name="Path" d="M18.21 22l-.48-.22-.24-.47.61.64c.07.06.07.06.08 0h-.08l-.1-.06-.2-.09a5.32 5.32 0 0 1-.55-.31 2.86 2.86 0 0 1-1.47-2.44 3.7 3.7 0 0 1 .93-2.4l.14-.15a7.45 7.45 0 0 0 2-3.1l.22-.64.63-.26a1.11 1.11 0 0 0 .68-1 1.14 1.14 0 0 0-.44-.95l-.6-.45V7.92a5 5 0 0 0-.67-2.49l-.56-1 .78-.81a1.65 1.65 0 0 0 .4-.7h-6.75a5 5 0 0 0-4.79 5v2.16l-.6.45a1.1 1.1 0 0 0-.44.89 1.13 1.13 0 0 0 .68 1.08l.63.26.22.64a7.4 7.4 0 0 0 2.07 3.18l.14.12.1.15a3.61 3.61 0 0 1 .7 2.09A3.07 3.07 0 0 1 9 21.77l-.32.13q-.7.32-1.41.69c-.91.47-1.8 1-2.62 1.49l-.77.49-.32.21a3.66 3.66 0 0 0-1.31 2.12l-.56 4 1.22.18a85.45 85.45 0 0 0 10.61.52 85.45 85.45 0 0 0 10.61-.52l1.22-.18-.56-4a3.5 3.5 0 0 0-1.39-2.08h-.07l-.22-.14-.82-.49c-.87-.51-1.79-1-2.73-1.49q-.69-.39-1.35-.7z" fill="#fafbfc" /></g></symbol><symbol viewBox="0 0 28 28" id="bag"><path class="cls-1" d="M6.06 8a8 8 0 0 1 15.88 0h1.18a3.21 3.21 0 0 1 3.19 3L27 24a2.83 2.83 0 0 1-2.88 3H3.89A2.83 2.83 0 0 1 1 24l.7-13a3.21 3.21 0 0 1 3.18-3zm2 0h11.86A6 6 0 0 0 8.08 8zM6 10H4.86a1.2 1.2 0 0 0-1.16 1.09L3 24.12a.82.82 0 0 0 .87.88h20.26a.82.82 0 0 0 .87-.88l-.69-13A1.2 1.2 0 0 0 23.14 10H22v4a1 1 0 0 1-2 0v-4H8v4a1 1 0 0 1-2 0z" /></symbol><symbol viewBox="0 0 14 14" id="caret"><path data-name="Arrow- icon" d="M2.74 3.54a1 1 0 0 0-1.43 0A1 1 0 0 0 1.33 5L7 10.75 12.67 5a1 1 0 0 0 .11-1.41 1 1 0 0 0-1.4-.11l-.11.11L7 7.75z" /></symbol><symbol viewBox="0 0 34 34" id="caret-slider-left"><path d="M25.53 30.59a1.42 1.42 0 0 1 0 2 1.4 1.4 0 0 1-2 0L8.06 17 23.55 1.41a1.4 1.4 0 0 1 2 0 1.42 1.42 0 0 1 0 2L12 17z" fill="#d3d3d3" /></symbol><symbol viewBox="0 0 34 34" id="caret-slider-right"><path d="M8.47 30.59a1.42 1.42 0 0 0 0 2 1.4 1.4 0 0 0 2 0L25.94 17 10.45 1.41a1.4 1.4 0 0 0-2 0 1.42 1.42 0 0 0 0 2L22 17z" fill="#d3d3d3" /></symbol><symbol viewBox="0 0 14 14" id="checkmark"><path data-name="Checkmark- icon" class="cls-1" d="M2.71 6.54A1 1 0 1 0 1.29 8L5 11.75 12.71 4a1 1 0 0 0-1.41-1.41L5 8.75z" /></symbol><symbol viewBox="0 0 14 14" id="close"><path data-name="Exit Delete- icon" class="cls-1" d="M7 5.59l-4.29-4.3a1 1 0 0 0-1.42 1.42L5.59 7l-4.3 4.29A1 1 0 0 0 2.7 12.7L7 8.41l4.29 4.29a1 1 0 0 0 1.41-1.41L8.41 7l4.29-4.29a1 1 0 1 0-1.41-1.42z" /></symbol><symbol viewBox="0 0 13 13" id="complete"><g fill-rule="evenodd"><circle cx="6.5" cy="6.5" r="6.5" /><path fill="#FFF" fill-rule="nonzero" d="M4.844 5.756a.686.686 0 0 0-1.021 0 .82.82 0 0 0 0 1.1l1.955 2.172 3.4-3.728a.82.82 0 0 0 0-1.1.686.686 0 0 0-1.022 0L5.778 6.694l-.934-.938z" /></g></symbol><symbol viewBox="0 0 28 28" id="credit-card"><rect x="1" y="3.5" width="26" height="21" rx="3" ry="3" fill="#3b7de9" /><path fill="#243858" d="M1 7.5h26v4H1z" /><path d="M4 15.5h12v1H4zm0 3h8v1H4z" fill="#fff" /></symbol><symbol viewBox="0 0 14 14" id="delete"><path data-name="Trash-(icon)" d="M2 2h10v2H2zm2-1h6v1H4zM3 5h8v8H3z" /></symbol><symbol viewBox="0 0 64 64" id="direct"><path d="M57 53V16H45v-3a13 13 0 0 0-26 0v3H7v37L5 64h54zM21 13a11 11 0 0 1 22 0v3H21zM9 18h10v2.18a3 3 0 1 0 2 0V18h22v2.18a3 3 0 1 0 2 0V18h10v35H9zM7.4 62L9 53.18V54h46v-.82L56.6 62z" fill="#d8d9d8" /><path data-name="Heart- icon" d="M37.43 39.39c1.48-1.56 2.57-3.16 2.57-3.92A3.44 3.44 0 0 0 36.59 32a3.4 3.4 0 0 0-2.89 1.61L32 36.32l-1.7-2.71A3.4 3.4 0 0 0 27.42 32 3.44 3.44 0 0 0 24 35.46c0 .79 1 2.31 2.56 3.91L32 45zM32 32.55A10.35 10.35 0 0 1 33.4 31a5.36 5.36 0 0 1 3.19-1A5.44 5.44 0 0 1 42 35.47c0 1.84-2.09 4.22-3.13 5.31l-5.56 5.72a2 2 0 0 1-2.63 0l-5.56-5.72C24 39.56 22 37.31 22 35.47A5.44 5.44 0 0 1 27.41 30a5.36 5.36 0 0 1 3.19 1 5.1 5.1 0 0 1 1.4 1.55z" fill="#010101" /></symbol><symbol viewBox="0 0 14 14" id="duplicate"><path data-name="Duplicate-(icon)" d="M4 4V3a2 2 0 0 1 2-2h5a2 2 0 0 1 2 2v5a2 2 0 0 1-2 2h-1v1a2 2 0 0 1-2 2H3a2 2 0 0 1-2-2V6a2 2 0 0 1 2-2zm0 1.5H3a.5.5 0 0 0-.5.5v5a.5.5 0 0 0 .5.5h5a.5.5 0 0 0 .5-.5v-1H6a2 2 0 0 1-2-2z" /></symbol><symbol viewBox="0 0 14 14" id="edit"><path data-name="Edit-(icon)" d="M8.19 2.89l3 3L4 12.88H1V10zm.71-.7l.45-.44s2-1.48 3.15-.25-.17 3.23-.17 3.23l-.45.44z" /></symbol><symbol viewBox="0 0 22 22" id="expand"><path data-name="Expand-(icon)-Copy" d="M5.25 15.25L2 12v6.5A1.5 1.5 0 0 0 3.5 20H10l-3.25-3.25 10-10L20 10V3.5A1.5 1.5 0 0 0 18.5 2H12l3.25 3.25z" fill="#d3d3d3" /></symbol><symbol viewBox="0 0 9 18" id="facebook"><path d="M5.446 6.51h3.302l-.145 3.042H5.446V18H2.23V9.552H0v-3.04h2.23V3.913C2.23 1.874 3.55 0 6.593 0c1.23 0 2.14.117 2.14.117l-.07 2.84s-.93-.008-1.945-.008c-1.095 0-1.27.505-1.27 1.34v2.22z" /></symbol><symbol viewBox="0 0 22 22" id="featured-arrow"><path d="M15.06 4.06a.9.9 0 0 0-1.27 1.27l4.77 4.77H.9a.9.9 0 0 0 0 1.8h17.65l-4.77 4.77a.9.9 0 1 0 1.27 1.27L22 11z" /></symbol><symbol viewBox="0 0 28 28" id="filter"><path d="M3 2a1 1 0 1 1 2 0v24a1 1 0 1 1-2 0zm10 0a1 1 0 1 1 2 0v24a1 1 0 1 1-2 0zm10 0a1 1 0 1 1 2 0v24a1 1 0 1 1-2 0z" opacity=".5" /><path data-name="Combined-Shape" d="M4 18a3 3 0 1 1 3-3 3 3 0 0 1-3 3zm10-6a3 3 0 1 1 3-3 3 3 0 0 1-3 3zm10 10a3 3 0 1 1 3-3 3 3 0 0 1-3 3z" /></symbol><symbol viewBox="0 0 48 48" id="gamepad"><path d="M12 26.5a3 3 0 1 0-3-3 3 3 0 0 0 3 3zm0 2a5 5 0 1 1 5-5 5 5 0 0 1-5 5zm25-6v-3a1 1 0 0 0-2 0v3h-3a1 1 0 0 0 0 2h3v3a1 1 0 0 0 2 0v-3h3a1 1 0 0 0 0-2zm10.59 13l-1-15a8.69 8.69 0 0 0-8.54-8H25v-7a1 1 0 0 0-2 0v7H10a8.69 8.69 0 0 0-8.54 8l-1 15A7.43 7.43 0 0 0 5.82 43l.35.09a7.07 7.07 0 0 0 8.05-4.11L16 34.5h16l1.77 4.43A7.07 7.07 0 0 0 41.82 43l.35-.09a7.43 7.43 0 0 0 5.42-7.4zm-5.9 5.5l-.35.09a5.08 5.08 0 0 1-5.71-2.92l-2.28-5.67h-18.7l-2.27 5.69a5.07 5.07 0 0 1-5.72 2.91l-.35-.1a5.43 5.43 0 0 1-3.9-5.37l1-15A6.69 6.69 0 0 1 10 14.5h28a6.69 6.69 0 0 1 6.55 6.12l1 15A5.43 5.43 0 0 1 41.69 41z" /></symbol><symbol viewBox="0 0 18 18" id="google"><path d="M8.946 7.382v3.17h4.684c-.22 1.334-1.42 3.587-4.675 3.587-2.813 0-5.108-2.34-5.108-5.203 0-2.864 2.295-5.202 5.108-5.202 1.59 0 2.66.68 3.273 1.258l2.414-2.346C13.172 1.27 11.25.427 8.955.427c-4.692 0-8.5 3.81-8.5 8.5 0 4.693 3.808 8.5 8.5 8.5 4.905 0 8.16-3.45 8.16-8.304 0-.706-.093-1.207-.212-1.742H8.947v.002z" /></symbol><symbol viewBox="0 0 28 28" id="hamburger"><path d="M1 5a1 1 0 0 1 1-1h24a1 1 0 1 1 0 2H2a1 1 0 0 1-1-1zm0 9a1 1 0 0 1 1-1h14a1 1 0 1 1 0 2H2a1 1 0 0 1-1-1zm0 9a1 1 0 0 1 1-1h20a1 1 0 1 1 0 2H2a1 1 0 0 1-1-1z" /></symbol><symbol viewBox="0 0 64 64" id="handcrafted"><path d="M32 44.63L14.65 40 9.47 59.31l9.48-.57L26.87 64 32 44.8 37.15 64l7.92-5.23 9.48.57L49.37 40z" fill="#f0eeee" /><path d="M28.47 48.43A4.38 4.38 0 0 1 30.8 50c.3.32.94 1 1.17 1s.86-.66 1.17-1a4.39 4.39 0 0 1 2.33-1.55 4.63 4.63 0 0 1 2.74.79 4.28 4.28 0 0 0 1.33.56c.24-.08.63-.89.82-1.28a4.44 4.44 0 0 1 1.72-2.22 4.85 4.85 0 0 1 2.83-.09 7.43 7.43 0 0 0 1.17.15.71.71 0 0 0 .31 0 4 4 0 0 0 .35-1.45 4.5 4.5 0 0 1 1-2.66 4.5 4.5 0 0 1 2.65-1 4 4 0 0 0 1.45-.36 4 4 0 0 0-.11-1.48 4.52 4.52 0 0 1 .09-2.83A4.41 4.41 0 0 1 54 34.84c.39-.19 1.2-.58 1.28-.8a4.06 4.06 0 0 0-.56-1.36A4.54 4.54 0 0 1 54 30a4.39 4.39 0 0 1 1.5-2.3c.32-.3 1-.94 1-1.17s-.66-.86-1-1.17A4.4 4.4 0 0 1 53.92 23a4.54 4.54 0 0 1 .79-2.73 4 4 0 0 0 .56-1.36c-.08-.21-.89-.61-1.28-.8a4.42 4.42 0 0 1-2.22-1.72 4.52 4.52 0 0 1-.09-2.83 4 4 0 0 0 .11-1.48 4 4 0 0 0-1.45-.36 4.5 4.5 0 0 1-2.66-1 4.5 4.5 0 0 1-1-2.66 4 4 0 0 0-.36-1.45.7.7 0 0 0-.31 0 7.29 7.29 0 0 0-1.17.15A4.84 4.84 0 0 1 42 6.65a4.42 4.42 0 0 1-1.72-2.22c-.19-.39-.58-1.2-.8-1.28a4.13 4.13 0 0 0-1.36.56 4.61 4.61 0 0 1-2.73.79A4.39 4.39 0 0 1 33.14 3c-.3-.32-.94-1-1.17-1s-.87.66-1.17 1a4.39 4.39 0 0 1-2.33 1.55 4.57 4.57 0 0 1-2.74-.8 4.3 4.3 0 0 0-1.34-.56c-.24.08-.63.89-.82 1.28a4.43 4.43 0 0 1-1.72 2.22 4.85 4.85 0 0 1-2.85.07 7.31 7.31 0 0 0-1.17-.15.67.67 0 0 0-.31 0 4 4 0 0 0-.36 1.45 4.49 4.49 0 0 1-1 2.66 4.49 4.49 0 0 1-2.66 1 4 4 0 0 0-1.45.36 4 4 0 0 0 .11 1.48 4.52 4.52 0 0 1-.09 2.83 4.43 4.43 0 0 1-2.22 1.72c-.39.19-1.2.58-1.28.8a4 4 0 0 0 .56 1.36A4.54 4.54 0 0 1 10 23a4.4 4.4 0 0 1-1.55 2.33c-.32.3-1 .94-1 1.17s.66.87 1 1.17A4.39 4.39 0 0 1 10 30a4.54 4.54 0 0 1-.79 2.73 4 4 0 0 0-.56 1.36c.08.21.89.61 1.28.8a4.42 4.42 0 0 1 2.22 1.72 4.53 4.53 0 0 1 .09 2.83 4 4 0 0 0-.11 1.48 4 4 0 0 0 1.45.36 4.5 4.5 0 0 1 2.66 1 4.5 4.5 0 0 1 1 2.66 4 4 0 0 0 .36 1.45.74.74 0 0 0 .31 0 7.31 7.31 0 0 0 1.17-.15 4.85 4.85 0 0 1 2.83.09 4.43 4.43 0 0 1 1.72 2.22c.19.39.58 1.2.8 1.28a4.18 4.18 0 0 0 1.36-.56 5.23 5.23 0 0 1 2.37-.82zm18.25-.16a3.12 3.12 0 0 1-.68.07 7.81 7.81 0 0 1-1.52-.18 7.09 7.09 0 0 0-1.17-.16 1.56 1.56 0 0 0-.4 0c-.17.09-.37.37-.75 1.15l-.08.16c-.19.39-.31.62-.46.89a4.9 4.9 0 0 1-.38.58 2.26 2.26 0 0 1-1.16.84l-.3.1h-.35a3.25 3.25 0 0 1-1.47-.34c-.25-.11-.45-.22-.85-.43a3.41 3.41 0 0 0-1.48-.58c-.18 0-.46.23-1.1.9-.38.39-.56.58-.79.79a5.1 5.1 0 0 1-.53.43 2.27 2.27 0 0 1-2.75 0 5.09 5.09 0 0 1-.53-.43c-.23-.21-.42-.4-.71-.7-.72-.75-1-1-1.18-1a3.2 3.2 0 0 0-1.35.62l-.33.17-.22.12a3.77 3.77 0 0 1-1.82.55H24l-.33-.12a2.22 2.22 0 0 1-1.11-.86 5.16 5.16 0 0 1-.36-.56c-.15-.26-.27-.49-.45-.88l-.08-.16c-.38-.79-.59-1.07-.75-1.16a1.46 1.46 0 0 0-.4 0 7.12 7.12 0 0 0-1.17.13 7.88 7.88 0 0 1-1.52.18 3.31 3.31 0 0 1-.53 0h-.48l-.55-.45a2.3 2.3 0 0 1-.85-1.4 7 7 0 0 1-.17-.75 6 6 0 0 0-.1-.66c0-.3-.07-.48-.1-.64a1.86 1.86 0 0 0-.29-.87c-.14-.14-.51-.25-1.52-.39l-.65-.1a7.06 7.06 0 0 1-.75-.17 2.29 2.29 0 0 1-1.32-.81l-.1-.17a2.27 2.27 0 0 1-.34-1.27 5.11 5.11 0 0 1 0-.65 6.22 6.22 0 0 1 .15-1c.18-1 .19-1.39.1-1.57s-.37-.37-1.16-.75l-.16-.08-.6-.3-.34-.19a4.81 4.81 0 0 1-.53-.35 2.21 2.21 0 0 1-.82-1.07l-.07-.24a2.32 2.32 0 0 1 .12-1.43 6.49 6.49 0 0 1 .28-.67l.1-.2.24-.45.11-.2a2.73 2.73 0 0 0 .5-1.28c0-.19-.24-.47-1-1.18l-.45-.44-.1-.19a5.75 5.75 0 0 1-.45-.55 2.28 2.28 0 0 1 0-2.81 5.1 5.1 0 0 1 .43-.53c.21-.23.39-.41.7-.71.75-.72 1-1 1-1.18a2.72 2.72 0 0 0-.47-1.27l-.11-.2c-.2-.37-.32-.6-.44-.86a5.13 5.13 0 0 1-.23-.6 2.28 2.28 0 0 1-.08-1.28l.07-.24a2.21 2.21 0 0 1 .81-1.08 4.77 4.77 0 0 1 .53-.35l.34-.19.6-.3c.93-.45 1.22-.65 1.31-.83a1.29 1.29 0 0 0 0-.6q0-.44-.13-.87l-.08-.43-.05-.35a6.83 6.83 0 0 1-.07-.74 2.3 2.3 0 0 1 .34-1.5l.14-.2a2.3 2.3 0 0 1 1.3-.8 7 7 0 0 1 .75-.17l.66-.1c1-.14 1.37-.25 1.52-.39s.25-.51.39-1.52a2.69 2.69 0 0 1 .1-.65 7 7 0 0 1 .14-.72 2.29 2.29 0 0 1 .81-1.32c.33-.28.34-.27.35-.23l.19-.09.35-.11a3.12 3.12 0 0 1 .68-.07 7.85 7.85 0 0 1 1.52.18 7.11 7.11 0 0 0 1.17.13 1.53 1.53 0 0 0 .4 0c.17-.09.37-.37.75-1.16l.08-.16c.13-.27.2-.42.31-.61s.16-.3.25-.43a2.41 2.41 0 0 1 1.45-1.27l.3-.1h.32a3.73 3.73 0 0 1 1.83.56l.19.1.25.13c.89.48 1.28.61 1.48.58s.47-.24 1.18-1l.44-.45L30 1a5.74 5.74 0 0 1 .55-.46 2.29 2.29 0 0 1 2.88 0A5.74 5.74 0 0 1 34 1l.18.17.44.45c.71.74 1 1 1.18 1A4 4 0 0 0 37.24 2l.25-.13.23-.12a3.78 3.78 0 0 1 1.82-.54h.34l.32.11a2.22 2.22 0 0 1 1.12.86 5.16 5.16 0 0 1 .36.56c.15.26.27.5.45.88.45.93.65 1.22.83 1.31a1.46 1.46 0 0 0 .4 0 7 7 0 0 0 1.17-.13A7.87 7.87 0 0 1 46 4.64a3.12 3.12 0 0 1 .68.07l.33.1.16.07c.07 0 .07 0-.85-.19l1.26.44a2.29 2.29 0 0 1 .84 1.3 7 7 0 0 1 .17.75 6 6 0 0 0 .1.66c0 .3.07.47.1.64a1.86 1.86 0 0 0 .29.87c.14.14.51.25 1.52.39l.65.1A7 7 0 0 1 52 10a2.3 2.3 0 0 1 1.31.8l.11.17a2.27 2.27 0 0 1 .35 1.28 5.09 5.09 0 0 1 0 .65 6.07 6.07 0 0 1-.15 1c-.18 1-.19 1.39-.1 1.57s.38.38 1.31.83l.6.3.34.19a4.78 4.78 0 0 1 .53.35 2.21 2.21 0 0 1 .82 1.08l.07.23a2.28 2.28 0 0 1-.08 1.29 5.15 5.15 0 0 1-.23.6c-.12.27-.23.48-.44.86-.49.91-.61 1.27-.58 1.48s.23.46.9 1.1c.39.38.58.56.78.79a5.1 5.1 0 0 1 .43.53 2.27 2.27 0 0 1 0 2.75 5.1 5.1 0 0 1-.43.53c-.21.23-.39.41-.7.71-.75.72-1 1-1 1.18a2.72 2.72 0 0 0 .47 1.28l.11.2c.2.38.31.6.44.86a5.16 5.16 0 0 1 .23.59 2.27 2.27 0 0 1 .08 1.29l-.07.23a2.21 2.21 0 0 1-.82 1.08 4.76 4.76 0 0 1-.53.35l-.35.19-.6.3c-.93.45-1.22.65-1.31.83s-.08.56.1 1.57l.06.34.05.35a6.82 6.82 0 0 1 .07.74 2.31 2.31 0 0 1-.35 1.5l-.14.2A2.3 2.3 0 0 1 52 43a7 7 0 0 1-.76.17l-.65.1-.64.1a1.86 1.86 0 0 0-.87.29c-.14.14-.25.51-.39 1.52a2.61 2.61 0 0 1-.1.65 7.12 7.12 0 0 1-.16.75 2.29 2.29 0 0 1-.81 1.32l-.55.45a.45.45 0 0 0-.34-.07z" fill="#d3d3d3" /><path d="M28.47 48.43A4.38 4.38 0 0 1 30.8 50c.3.32.94 1 1.17 1s.86-.66 1.17-1a4.39 4.39 0 0 1 2.33-1.55 4.63 4.63 0 0 1 2.74.79 4.28 4.28 0 0 0 1.33.56c.24-.08.63-.89.82-1.28a4.44 4.44 0 0 1 1.72-2.22 4.85 4.85 0 0 1 2.83-.09 7.43 7.43 0 0 0 1.17.15.71.71 0 0 0 .31 0 4 4 0 0 0 .35-1.45 4.5 4.5 0 0 1 1-2.66 4.5 4.5 0 0 1 2.65-1 4 4 0 0 0 1.45-.36 4 4 0 0 0-.11-1.48 4.52 4.52 0 0 1 .09-2.83A4.41 4.41 0 0 1 54 34.84c.39-.19 1.2-.58 1.28-.8a4.06 4.06 0 0 0-.56-1.36A4.54 4.54 0 0 1 54 30a4.39 4.39 0 0 1 1.5-2.3c.32-.3 1-.94 1-1.17s-.66-.86-1-1.17A4.4 4.4 0 0 1 53.92 23a4.54 4.54 0 0 1 .79-2.73 4 4 0 0 0 .56-1.36c-.08-.21-.89-.61-1.28-.8a4.42 4.42 0 0 1-2.22-1.72 4.52 4.52 0 0 1-.09-2.83 4 4 0 0 0 .11-1.48 4 4 0 0 0-1.45-.36 4.5 4.5 0 0 1-2.66-1 4.5 4.5 0 0 1-1-2.66 4 4 0 0 0-.36-1.45.7.7 0 0 0-.31 0 7.29 7.29 0 0 0-1.17.15A4.84 4.84 0 0 1 42 6.65a4.42 4.42 0 0 1-1.72-2.22c-.19-.39-.58-1.2-.8-1.28a4.13 4.13 0 0 0-1.36.56 4.61 4.61 0 0 1-2.73.79A4.39 4.39 0 0 1 33.14 3c-.3-.32-.94-1-1.17-1s-.87.66-1.17 1a4.39 4.39 0 0 1-2.33 1.55 4.57 4.57 0 0 1-2.74-.8 4.3 4.3 0 0 0-1.34-.56c-.24.08-.63.89-.82 1.28a4.43 4.43 0 0 1-1.72 2.22 4.85 4.85 0 0 1-2.85.07 7.31 7.31 0 0 0-1.17-.15.67.67 0 0 0-.31 0 4 4 0 0 0-.36 1.45 4.49 4.49 0 0 1-1 2.66 4.49 4.49 0 0 1-2.66 1 4 4 0 0 0-1.45.36 4 4 0 0 0 .11 1.48 4.52 4.52 0 0 1-.09 2.83 4.43 4.43 0 0 1-2.22 1.72c-.39.19-1.2.58-1.28.8a4 4 0 0 0 .56 1.36A4.54 4.54 0 0 1 10 23a4.4 4.4 0 0 1-1.55 2.33c-.32.3-1 .94-1 1.17s.66.87 1 1.17A4.39 4.39 0 0 1 10 30a4.54 4.54 0 0 1-.79 2.73 4 4 0 0 0-.56 1.36c.08.21.89.61 1.28.8a4.42 4.42 0 0 1 2.22 1.72 4.53 4.53 0 0 1 .09 2.83 4 4 0 0 0-.11 1.48 4 4 0 0 0 1.45.36 4.5 4.5 0 0 1 2.66 1 4.5 4.5 0 0 1 1 2.66 4 4 0 0 0 .36 1.45.74.74 0 0 0 .31 0 7.31 7.31 0 0 0 1.17-.15 4.85 4.85 0 0 1 2.83.09 4.43 4.43 0 0 1 1.72 2.22c.19.39.58 1.2.8 1.28a4.18 4.18 0 0 0 1.36-.56 5.23 5.23 0 0 1 2.37-.82z" fill="#fff" /><path d="M43.74 24.76a2.8 2.8 0 0 0-1.13-.69l.18-.18a3 3 0 0 0 .92-2.06 2.82 2.82 0 0 0-.84-2.1 2.88 2.88 0 0 0-1.09-.68 3.06 3.06 0 0 0 .46-1.73 2.71 2.71 0 0 0-.95-2 3.29 3.29 0 0 0-3.57-.14 2.85 2.85 0 0 0-.77-1.39 2.8 2.8 0 0 0-2.14-.79 3.12 3.12 0 0 0-2.06.93l-5.28 5.15a10.44 10.44 0 0 0-.09-2c-.28-1.8-1.31-2.86-2.83-2.89h-.08c-2.34 0-2.81 2.06-3.15 4.54l-.21 1.62c-.09.71-.17 1.29-.26 1.88a45.56 45.56 0 0 1-.92 4.57c-1.12 4.41-.38 7.72 2.32 10.42A9.38 9.38 0 0 0 28.72 40H29a8.59 8.59 0 0 0 6.15-2.5l8.49-8.5a3.12 3.12 0 0 0 .93-2.07 2.8 2.8 0 0 0-.83-2.17zm-1.16 3.13L34 36.42a7 7 0 0 1-5.29 2.06 7.9 7.9 0 0 1-5.4-2.32c-2.32-2.32-2.92-5.1-1.93-9a47.21 47.21 0 0 0 .95-4.71c.09-.6.17-1.19.27-1.92l.21-1.61c.42-3.11.89-3.25 1.71-3.24.31 0 1.13 0 1.37 1.61a15.14 15.14 0 0 1 0 3.5v.12l-.16 2 8-7.93a1.63 1.63 0 0 1 1.08-.49 1.3 1.3 0 0 1 1 .39 1.34 1.34 0 0 1 .29 1.5 1.66 1.66 0 0 1-.36.54l-6.69 6.69 1.06 1.06L36.87 18a6.78 6.78 0 0 1 .8-.77c.71-.67 1.94-1.32 2.64-.72a1.22 1.22 0 0 1 .42.9 1.59 1.59 0 0 1-.46 1.17L32.87 26l1.06 1 6.54-6.55a1.36 1.36 0 0 1 1.7 1.35 1.56 1.56 0 0 1-.48 1L35 29.47l1.06 1.06 5-5a1.37 1.37 0 0 1 1.59.23 1.44 1.44 0 0 1 0 2z" fill="#010101" /></symbol><symbol viewBox="0 0 22 22" id="heart"><path class="cls-1" d="M12.32 18.92a2 2 0 0 1-2.63 0l-5.56-5.67C3 12.05 1 9.82 1 8a5.42 5.42 0 0 1 10-2.89A5.42 5.42 0 0 1 21 8c0 1.83-2.09 4.18-3.13 5.26z" /></symbol><symbol viewBox="0 0 22 22" id="heart-outline"><path data-name="Heart-(icon)" d="M16.43 11.86C17.92 10.33 19 9.58 19 8a3.42 3.42 0 0 0-6.31-1.82L11 8.08 9.31 6.17A3.42 3.42 0 0 0 3 8c0 1.58 1 2.28 2.55 3.86L11 17.41zM11 5.11a5.22 5.22 0 0 1 4.58-2.53A5.24 5.24 0 0 1 21 8c0 3-2.09 4.18-3.13 5.26l-5.56 5.67a2 2 0 0 1-2.63 0l-5.55-5.68C3 12.05 1 11.08 1 8a5.36 5.36 0 0 1 5.42-5.42A5.79 5.79 0 0 1 11 5.11z" /></symbol><symbol viewBox="0 0 14 14" id="help"><path data-name="Help- icon" class="cls-1" d="M1 7a6 6 0 1 1 6 6 6 6 0 0 1-6-6zm5.08 1.19h1.44c-.12-.1 0-.16 0-.35 0-1 1.94-1.1 1.94-2.8C9.47 4 8.55 3.2 7 3.2a3.33 3.33 0 0 0-2.5 1.13l.94 1.06a1.86 1.86 0 0 1 1.43-.72c.64 0 .91.3.91.66 0 .8-1.7 1-1.7 2.35zM7 10.78a.94.94 0 1 0-.94-.94 1 1 0 0 0 .94.94z" /></symbol><symbol viewBox="0 0 22 22" id="instagram"><path class="cls-1" d="M6.88 1.06a7.31 7.31 0 0 0-2.43.46 4.88 4.88 0 0 0-1.77 1.16 4.89 4.89 0 0 0-1.16 1.77 7.31 7.31 0 0 0-.46 2.43C1 7.94 1 8.28 1 11s0 3.06.06 4.12a7.3 7.3 0 0 0 .46 2.43 4.89 4.89 0 0 0 1.15 1.77 4.9 4.9 0 0 0 1.77 1.15 7.35 7.35 0 0 0 2.43.47C7.94 21 8.28 21 11 21s3.06 0 4.12-.06a7.35 7.35 0 0 0 2.43-.47 5.1 5.1 0 0 0 2.93-2.92 7.39 7.39 0 0 0 .47-2.43c0-1.07.06-1.41.06-4.12s0-3.06-.06-4.12a7.39 7.39 0 0 0-.47-2.43 4.93 4.93 0 0 0-1.15-1.77 4.89 4.89 0 0 0-1.77-1.15 7.31 7.31 0 0 0-2.43-.46C14.06 1 13.72 1 11 1s-3.06 0-4.12.06M7 19.14a5.56 5.56 0 0 1-1.9-.34A3.13 3.13 0 0 1 4 18a3.11 3.11 0 0 1-.8-1.1 5.57 5.57 0 0 1-.34-1.9c0-1.06-.06-1.37-.06-4s0-3 .06-4a5.58 5.58 0 0 1 .34-1.9A3.1 3.1 0 0 1 4 4a3.1 3.1 0 0 1 1.1-.8A5.5 5.5 0 0 1 7 2.86c1.05 0 1.37-.06 4-.06s3 0 4 .06a5.52 5.52 0 0 1 1.86.34A3.09 3.09 0 0 1 18 4a3.1 3.1 0 0 1 .8 1.1 5.53 5.53 0 0 1 .34 1.9c0 1.05.06 1.37.06 4s0 3-.06 4a5.52 5.52 0 0 1-.34 1.86 3.33 3.33 0 0 1-1.9 1.9 5.58 5.58 0 0 1-1.9.34c-1.05 0-1.37.06-4 .06s-3 0-4-.06m8.1-13.44a1.2 1.2 0 1 0 1.2-1.2 1.2 1.2 0 0 0-1.2 1.2M5.86 11A5.14 5.14 0 1 0 11 5.86 5.13 5.13 0 0 0 5.86 11m1.8 0A3.33 3.33 0 1 1 11 14.33 3.33 3.33 0 0 1 7.66 11" /></symbol><symbol viewBox="0 0 14 14" id="lock"><path class="cls-1" d="M3.5 6V4.51a3.5 3.5 0 1 1 7 0V6H12v7H2V6zm2 0h3V4.51a1.5 1.5 0 0 0-3 0z" /></symbol><symbol viewBox="0 0 14 14" id="long-arrow-left"><path data-name="Long-Arrow- left" d="M4 3.5L1.29 6.28a1 1 0 0 0 0 1.41L4 10.5zm9 3H4v1h9z" /></symbol><symbol viewBox="0 0 14 14" id="long-arrow-right"><path data-name="Long-Arrow- right" d="M10 3.5l2.71 2.78a1 1 0 0 1 0 1.41L10 10.5zm-9 3h9v1H1z" /></symbol><symbol viewBox="0 0 14 14" id="manage"><path d="M11.5 4H10V2.5A1.5 1.5 0 0 0 8.5 1h-3A1.5 1.5 0 0 0 4 2.5V4H2.5A1.5 1.5 0 0 0 1 5.5v6A1.5 1.5 0 0 0 2.5 13h9a1.5 1.5 0 0 0 1.5-1.5v-6A1.5 1.5 0 0 0 11.5 4zm-6-1.5h3V4h-3z" /></symbol><symbol viewBox="0 0 22 22" id="message"><path class="cls-1" d="M17.37 15.93l.49-.81a8 8 0 1 0-2.74 2.74l.81-.49 2.23.79zm3.48 3.86c.32.91-.16 1.38-1.06 1.06l-3.64-1.28a10 10 0 1 1 3.42-3.42zM7 12a1 1 0 1 0-1-1 1 1 0 0 0 1 1zm8 0a1 1 0 1 0-1-1 1 1 0 0 0 1 1zm-4 0a1 1 0 1 0-1-1 1 1 0 0 0 1 1z" /></symbol><symbol viewBox="0 0 22 22" id="message-active"><path data-name="Comments-(icon)" d="M19.57 16.15l1.28 3.64c.32.91-.16 1.38-1.06 1.06l-3.64-1.28a10 10 0 1 1 3.42-3.42zM6 11a.93.93 0 0 0 .84 1h8.33a.93.93 0 0 0 .83-1 .93.93 0 0 0-.84-1H6.84A.93.93 0 0 0 6 11z" /></symbol><symbol viewBox="0 0 14 14" id="minus"><path class="cls-1" d="M2 6h10a1 1 0 0 1 1 1 1 1 0 0 1-1 1H2a1 1 0 0 1-1-1 1 1 0 0 1 1-1z" /></symbol><symbol viewBox="0 0 28 28" id="more"><path d="M3 16a2 2 0 1 1 2-2 2 2 0 0 1-2 2zm11 0a2 2 0 1 1 2-2 2 2 0 0 1-2 2zm11 0a2 2 0 1 1 2-2 2 2 0 0 1-2 2z" /></symbol><symbol viewBox="0 0 64 64" id="network"><path fill="#eeedee" d="M52.31 11.54l-.77-1.85-40.9 17 31.95 28.22 1.32-1.5-29.55-26.1 37.95-15.77z" /><circle cx="51" cy="13" r="11" fill="#fff" /><circle cx="43" cy="51" r="11" fill="#fff" /><path d="M51 24a11 11 0 1 0-11-11 11 11 0 0 0 11 11zm0 2a13 13 0 1 1 13-13 13 13 0 0 1-13 13zM43 62a11 11 0 1 0-11-11 11 11 0 0 0 11 11zm0 2a13 13 0 1 1 13-13 13 13 0 0 1-13 13zM13 38A11 11 0 1 0 2 27a11 11 0 0 0 11 11zm0 2a13 13 0 1 1 13-13 13 13 0 0 1-13 13z" fill="#d3d3d3" /><path d="M51 18.14a39.86 39.86 0 0 0 4.31-.19l-.13-1a.91.91 0 0 0-.22-.33l-1.73-1.07a3.46 3.46 0 0 1-.49-.21 2 2 0 0 1-1.24-1.84A2.73 2.73 0 0 1 52 12a3.28 3.28 0 0 1 .34-.5l.32-.44A1.9 1.9 0 0 0 53 10c0-1.48-.64-2.51-1.83-2.51A2.2 2.2 0 0 0 48.94 10a1.62 1.62 0 0 0 .31 1.15 6.72 6.72 0 0 1 .78.8 2.66 2.66 0 0 1 .46 1.6 2 2 0 0 1-.94 1.67 3.29 3.29 0 0 1-.5.31l-2 1.12a1 1 0 0 0-.22.35l-.13 1a39.86 39.86 0 0 0 4.3.14zM54.56 10a5 5 0 0 1-1.2 2.75 1.59 1.59 0 0 0-.36.79c0 .47.84.67.84.67l1.91 1.18a2.19 2.19 0 0 1 .92 1.39l.33 2.38s-1.2.47-6 .47-6-.47-6-.47l.33-2.38a2.27 2.27 0 0 1 .91-1.42l2.09-1.16s.67-.32.67-.67a1.26 1.26 0 0 0-.22-.79A3.15 3.15 0 0 1 47.44 10a3.69 3.69 0 0 1 3.78-4c2.62 0 3.34 2.46 3.34 4zM43 56.32a39.86 39.86 0 0 0 4.31-.19l-.13-1a.91.91 0 0 0-.18-.33l-1.73-1.07a3.46 3.46 0 0 1-.49-.21 2 2 0 0 1-1.24-1.84A2.73 2.73 0 0 1 44 50.2a3.28 3.28 0 0 1 .34-.5l.32-.44a1.9 1.9 0 0 0 .34-1.07c0-1.48-.64-2.51-1.83-2.51a2.2 2.2 0 0 0-2.28 2.51 1.62 1.62 0 0 0 .31 1.15 6.72 6.72 0 0 1 .78.8 2.66 2.66 0 0 1 .46 1.6 2 2 0 0 1-.94 1.67 3.29 3.29 0 0 1-.5.31l-2 1.12a1 1 0 0 0-.22.35l-.13 1a39.86 39.86 0 0 0 4.35.13zm3.56-8.13a5 5 0 0 1-1.2 2.75 1.59 1.59 0 0 0-.36.79c0 .47.84.67.84.67l1.91 1.18a2.19 2.19 0 0 1 .92 1.42l.33 2.35s-1.2.47-6 .47-6-.47-6-.47l.33-2.35a2.27 2.27 0 0 1 .91-1.42l2.09-1.16s.67-.32.67-.67a1.26 1.26 0 0 0-.22-.79 3.15 3.15 0 0 1-1.33-2.75 3.69 3.69 0 0 1 3.78-4c2.62-.03 3.33 2.43 3.33 3.98z" fill="#010101" /><circle cx="13" cy="27" r="11" fill="#fff" /><path d="M13 32.32a39.86 39.86 0 0 0 4.31-.19l-.13-1a.91.91 0 0 0-.18-.33l-1.73-1.07a3.46 3.46 0 0 1-.49-.21 2 2 0 0 1-1.24-1.84A2.73 2.73 0 0 1 14 26.2a3.28 3.28 0 0 1 .34-.5c.21-.28.24-.32.32-.44a1.9 1.9 0 0 0 .34-1.07c0-1.48-.64-2.51-1.83-2.51a2.2 2.2 0 0 0-2.28 2.51 1.62 1.62 0 0 0 .31 1.15 6.72 6.72 0 0 1 .78.8 2.66 2.66 0 0 1 .46 1.6 2 2 0 0 1-.94 1.67 3.29 3.29 0 0 1-.5.31l-2 1.12a1 1 0 0 0-.22.35l-.13 1a39.86 39.86 0 0 0 4.35.13zm3.56-8.13a5 5 0 0 1-1.2 2.75 1.59 1.59 0 0 0-.36.79c0 .47.84.67.84.67l1.91 1.18a2.19 2.19 0 0 1 .92 1.42l.33 2.35s-1.2.47-6 .47-6-.47-6-.47L7.33 31a2.27 2.27 0 0 1 .91-1.42l2.09-1.16s.67-.32.67-.67a1.26 1.26 0 0 0-.22-.79 3.15 3.15 0 0 1-1.33-2.75 3.69 3.69 0 0 1 3.78-4c2.62-.03 3.33 2.43 3.33 3.98z" fill="#010101" /></symbol><symbol viewBox="0 0 28 28" id="paypal"><path d="M21.88 7.33a4.94 4.94 0 0 0-1-4.43C19.74 1.63 17.6 1 15 1H7.29a1.11 1.11 0 0 0-1.11.95L3 22.21a.67.67 0 0 0 .54.78H8.4l1.19-7.52v.24a1.11 1.11 0 0 1 1.11-.95h2.22c4.44 0 7.93-1.82 8.88-7 0-.16.08-.32.08-.47" fill="#3b7de9" /><path d="M7 24.36h2.39l-.32 2a.56.56 0 0 0 .5.62h4.06a.94.94 0 0 0 1-.78V26l.8-4.66.08-.23a.94.94 0 0 1 1-.78H17c3.9 0 6.92-1.55 7.79-6a5 5 0 0 0-.79-4.5A3.72 3.72 0 0 0 23 9a3.58 3.58 0 0 0-.1.44c-1 5.05-4.45 6.84-8.91 6.84h-2.27a1.11 1.11 0 0 0-1.11.93V17l-1.2 7.36z" fill="#169ad7" opacity=".7" style="isolation:isolate" /></symbol><symbol viewBox="0 0 64 64" id="percentage"><path fill="#f0eeee" d="M4 7.5h56v3H4zM13 12.5H2v11a11 11 0 0 0 11-11zM2 43.5v11h11a11 11 0 0 0-11-11zM51 12.5a11 11 0 0 0 11 11v-11zM51 54.5h11v-11a11 11 0 0 0-11 11z" /><path d="M2 12.5v42h60v-42zm-2-2h64v46H0z" fill="#d3d3d3" /><g fill="#010101"><path d="M25 28.5a2 2 0 1 0-2-2 2 2 0 0 0 2 2zm0 2a4 4 0 1 1 4-4 4 4 0 0 1-4 4zM39 42.5a2 2 0 1 0-2-2 2 2 0 0 0 2 2zm0 2a4 4 0 1 1 4-4 4 4 0 0 1-4 4zM23.38 43.88l19-19a1.25 1.25 0 0 0-1.77-1.77l-19 19a1.25 1.25 0 0 0 1.77 1.77z" /></g></symbol><symbol viewBox="0 0 22 22" id="pin"><path data-name="Pin- icon" class="cls-1" d="M3.18 9.59C3.18 4.85 6.67 1 11 1s7.79 3.85 7.79 8.59a9 9 0 0 1-2.27 6.06l-.35.36-3.6 4.31a2.17 2.17 0 0 1-3.07.09l-.09-.09-3.48-4.2a9 9 0 0 1-2.75-6.53zm1.73 0A7 7 0 0 0 7 14.67l3.55 4.27a.55.55 0 0 0 .77 0L15 14.59l.27-.28A7 7 0 0 0 17 9.59c0-3.69-2.68-6.68-6-6.68S4.91 5.9 4.91 9.59zM11 12.43a2.74 2.74 0 0 1-2.6-2.86A2.74 2.74 0 0 1 11 6.72a2.74 2.74 0 0 1 2.6 2.86 2.74 2.74 0 0 1-2.6 2.85z" /></symbol><symbol viewBox="0 0 22 22" id="pinterest"><path class="cls-1" d="M9.4 14.23C8.87 17 8.23 19.62 6.33 21c-.59-4.16.86-7.29 1.53-10.61-1.14-1.92.14-5.81 2.56-4.85 3 1.18-2.58 7.17 1.15 7.92 3.89.78 5.48-6.75 3.07-9.2-3.49-3.54-10.15-.08-9.33 5 .2 1.24 1.48 1.61.51 3.32C3.59 12.07 2.92 10.31 3 8a7.51 7.51 0 0 1 6.77-6.9c4.23-.5 8.15 1.51 8.7 5.46.61 4.46-1.9 9.29-6.39 8.94-1.22-.09-1.73-.69-2.68-1.27z" /></symbol><symbol viewBox="0 0 14 14" id="plus"><path data-name="Plus- icon" class="cls-1" d="M8 6V2a1 1 0 0 0-2 0v4H2a1 1 0 0 0 0 2h4v4a1 1 0 0 0 2 0V8h4a1 1 0 0 0 0-2z" /></symbol><symbol viewBox="0 0 13 10" id="processing"><path d="M11.227 2.364H9.455V0H1.182C.532 0 0 .532 0 1.182v6.5h1.182c0 .98.792 1.773 1.773 1.773a1.77 1.77 0 0 0 1.772-1.773h3.546c0 .98.792 1.773 1.772 1.773a1.77 1.77 0 0 0 1.773-1.773H13V4.727l-1.773-2.363zM2.955 8.568a.885.885 0 1 1 0-1.773.885.885 0 1 1 0 1.773zm7.977-5.318l1.158 1.477H9.455V3.25h1.477zm-.887 5.318a.885.885 0 1 1 0-1.773.885.885 0 1 1 0 1.773z" /></symbol><symbol viewBox="0 0 14 14" id="radio"><path class="cls-1" d="M7 4a3 3 0 1 1-3 3 3 3 0 0 1 3-3z" /></symbol><symbol viewBox="0 0 14 14" id="replied"><path data-name="Replied- icon" class="cls-1" d="M7.55 9.23v3.19l5.08-4.62a1.06 1.06 0 0 0 .1-1.5l-.1-.1-5.08-4.63V5C5.66 5.38 3 6.84 1 11.34a18.41 18.41 0 0 1 6.55-2.11z" /></symbol><symbol viewBox="0 0 22 22" id="sales"><path data-name="Sales- icon" d="M11 21a10 10 0 1 1 10-10 10 10 0 0 1-10 10zm-.84-5.75v.54a.72.72 0 0 0 1.43 0v-.54a2.18 2.18 0 0 0 1.91-2.33c0-1.37-.75-2.15-2.45-2.61-1.11-.31-1.37-.57-1.37-1.22a1.12 1.12 0 0 1 1.2-1 2.86 2.86 0 0 1 1.29.28 1.93 1.93 0 0 1 .29.18h.06a.72.72 0 0 0 1-1 2.84 2.84 0 0 0-.72-.49 4.09 4.09 0 0 0-1.22-.38v-.47a.72.72 0 0 0-1.43 0v.57a2.47 2.47 0 0 0-1.91 2.3c0 1.37.75 2.15 2.45 2.61 1.12.3 1.38.57 1.38 1.22s-.28 1-1.2 1a2.16 2.16 0 0 1-1.13-.26.9.9 0 0 1-.19-.14.72.72 0 0 0-1.26.69l.07.11a2 2 0 0 0 .65.58 3.22 3.22 0 0 0 1.15.36z" /></symbol><symbol viewBox="0 0 34 34" id="sales-average"><path d="M3.71 31.71l29-29A1 1 0 0 0 31.3 1.3l-29 29a1 1 0 0 0 1.41 1.41z" fill="#d3d3d3" /><circle cx="17" cy="17" r="6" fill="#fafbfc" /><path d="M17 25a8 8 0 1 1 8-8 8 8 0 0 1-8 8zm-1.8-4.51a2.92 2.92 0 0 0 1 .37v.49a.65.65 0 0 0 1.3 0v-.49a2 2 0 0 0 1.74-2.12c0-1.24-.68-2-2.22-2.37-1-.27-1.25-.52-1.25-1.11a1 1 0 0 1 1.09-.87 2.6 2.6 0 0 1 1.18.26 1.76 1.76 0 0 1 .27.16h.05a.65.65 0 0 0 .92-.92 2.58 2.58 0 0 0-.66-.45 3.72 3.72 0 0 0-1.11-.35v-.49a.65.65 0 0 0-1.3 0v.52a2.25 2.25 0 0 0-1.74 2.09c0 1.24.68 2 2.22 2.37 1 .27 1.25.52 1.25 1.11s-.25.87-1.09.87a2 2 0 0 1-1-.23.82.82 0 0 1-.17-.13.65.65 0 0 0-1.09.72 1.84 1.84 0 0 0 .61.57z" fill="#8ebd55" /><circle cx="31" cy="3" r="3" fill="#9f9f9f" /><circle data-name="Oval-4" cx="3" cy="31" r="3" fill="#9f9f9f" /></symbol><symbol viewBox="0 0 34 34" id="sales-bag-black"><path d="M29.5 28.12V9.5h-25v18.62l-.73 4.38h26.46zM3 8h28v20l1 6H2l1-6z" fill="#9f9f9f" /><path d="M26 14V9A9 9 0 1 0 8 9v5h1.5V9a7.53 7.53 0 1 1 15 0v5z" fill="#9f9f9f" /><path data-name="$" d="M15 25.89a2.57 2.57 0 0 1-.82-.73.91.91 0 1 1 1.52-1 1.14 1.14 0 0 0 .24.18 2.76 2.76 0 0 0 1.43.33c1.17 0 1.52-.35 1.52-1.22s-.33-1.17-1.76-1.55c-2.18-.59-3.13-1.59-3.13-3.33a3.14 3.14 0 0 1 2.43-2.93v-.73a.91.91 0 0 1 1.83 0v.68a5.2 5.2 0 0 1 1.55.49 3.61 3.61 0 0 1 .92.63.91.91 0 1 1-1.29 1.29l-.07-.06a2.46 2.46 0 0 0-.37-.23 3.64 3.64 0 0 0-1.65-.36 1.42 1.42 0 0 0-1.52 1.22c0 .83.33 1.17 1.76 1.55 2.17.57 3.11 1.58 3.11 3.32a2.77 2.77 0 0 1-2.43 3v.69a.91.91 0 0 1-1.83 0v-.69a4.09 4.09 0 0 1-1.44-.55z" fill="#010101" /></symbol><symbol viewBox="0 0 34 34" id="sales-bag-green"><path d="M29 28.17V10H5v18.17L4.36 32h25.28zM3 8h28v20l1 6H2l1-6z" fill="#d3d3d3" /><path d="M26 14V9A9 9 0 1 0 8 9v5h2V9a7 7 0 1 1 14 0v5z" fill="#d3d3d3" /><path data-name="$" d="M15 25.89a2.57 2.57 0 0 1-.82-.73.91.91 0 1 1 1.52-1 1.14 1.14 0 0 0 .24.18 2.76 2.76 0 0 0 1.43.33c1.17 0 1.52-.35 1.52-1.22s-.33-1.17-1.76-1.55c-2.18-.59-3.13-1.59-3.13-3.33a3.14 3.14 0 0 1 2.43-2.93v-.73a.91.91 0 0 1 1.83 0v.68a5.2 5.2 0 0 1 1.55.49 3.61 3.61 0 0 1 .92.63.91.91 0 1 1-1.29 1.29l-.07-.06a2.46 2.46 0 0 0-.37-.23 3.64 3.64 0 0 0-1.65-.36 1.42 1.42 0 0 0-1.52 1.22c0 .83.33 1.17 1.76 1.55 2.17.57 3.11 1.58 3.11 3.32a2.77 2.77 0 0 1-2.43 3v.69a.91.91 0 0 1-1.83 0v-.69a4.09 4.09 0 0 1-1.44-.55z" fill="#8ebd55" /></symbol><symbol viewBox="0 0 22 22" id="sales-outline"><path data-name="Sales-(icon)" class="cls-1" d="M11 21a10 10 0 1 1 10-10 10 10 0 0 1-10 10zm0-2a8 8 0 1 0-8-8 8 8 0 0 0 8 8zm-.84-3.75A3.22 3.22 0 0 1 9 14.84a2 2 0 0 1-.65-.58.72.72 0 1 1 1.19-.8.9.9 0 0 0 .19.14 2.16 2.16 0 0 0 1.13.26c.92 0 1.2-.28 1.2-1s-.26-.92-1.38-1.22c-1.68-.4-2.43-1.18-2.43-2.55a2.47 2.47 0 0 1 1.91-2.3v-.58a.72.72 0 0 1 1.43 0v.54a4.09 4.09 0 0 1 1.22.38 2.84 2.84 0 0 1 .72.49.72.72 0 0 1-1 1h-.06a1.93 1.93 0 0 0-.29-.18 2.86 2.86 0 0 0-1.29-.28 1.12 1.12 0 0 0-1.2 1c0 .65.26.92 1.38 1.22 1.7.45 2.45 1.24 2.45 2.61a2.18 2.18 0 0 1-1.91 2.33v.54a.72.72 0 0 1-1.43 0v-.54z" /></symbol><symbol viewBox="0 0 28 28" id="search"><path d="M22.16 20.75l4.55 4.55a1 1 0 0 1-1.41 1.41l-4.55-4.55a12 12 0 1 1 1.41-1.41zM13 23A10 10 0 1 0 3 13a10 10 0 0 0 10 10z" /></symbol><symbol viewBox="0 0 64 64" id="secure"><rect x="6.45" y="4.03" width="57" height="44" rx="6" ry="6" fill="#fff" /><rect x="7.45" y="5.03" width="55" height="42" rx="6" ry="6" fill="none" stroke="#d3d3d3" stroke-width="2" /><path fill="#d3d3d3" d="M8.45 12.03h53v8h-53z" /><path d="M37.45 30h20v2h-20zm7 7h13v2h-13zm-10 0h8v2h-8z" fill="#eeedee" /><path d="M31.95 36a4.25 4.25 0 0 1 .88-2.46 5.29 5.29 0 0 1 .87-1l1.66-1.32L28.84 24H7.06L.55 31.27l1.66 1.32a5.29 5.29 0 0 1 .87 1A4.25 4.25 0 0 1 3.95 36c0 .89-.15 1.4-1.14 4.29A19.3 19.3 0 0 0 1.45 47a7.76 7.76 0 0 0 2.39 5.9 6.5 6.5 0 0 0 2.61 1.52l.74.21c.57.17 1.21.37 1.89.62a36.15 36.15 0 0 1 5.74 2.61 22.38 22.38 0 0 1 2 1.28L18 60l1.15-.8q1-.67 2-1.28a36.15 36.15 0 0 1 5.74-2.61c.69-.25 1.32-.45 1.89-.62l.68-.19a6.52 6.52 0 0 0 2.63-1.54A7.76 7.76 0 0 0 34.45 47a19.3 19.3 0 0 0-1.36-6.71c-.99-2.86-1.14-3.37-1.14-4.29zm-3 16.5a37.79 37.79 0 0 0-11 5 37.79 37.79 0 0 0-11-5s-3.5-1-3.5-5.5 2.5-8 2.5-11a7.08 7.08 0 0 0-2.5-5l4.5-5h20l4.5 5a7.08 7.08 0 0 0-2.5 5c0 3 2.5 6.5 2.5 11s-3.5 5.53-3.5 5.53z" fill="#9f9f9f" /><path d="M28.95 52.53a37.79 37.79 0 0 0-11 5 37.79 37.79 0 0 0-11-5s-3.5-1-3.5-5.5 2.5-8 2.5-11a7.08 7.08 0 0 0-2.5-5l4.5-5h20l4.5 5a7.08 7.08 0 0 0-2.5 5c0 3 2.5 6.5 2.5 11s-3.5 5.5-3.5 5.5z" fill="#fff" /><path d="M17.95 50a8.5 8.5 0 1 1 8.5-8.5 8.5 8.5 0 0 1-8.5 8.5zm-2.79-9a1 1 0 0 0-1.52 1.3l.11.11 2.7 2.84 5.71-5.79A1 1 0 0 0 20.74 38l-4.29 4.25z" fill="#010101" /></symbol><symbol viewBox="0 0 22 22" id="send"><path data-name="Send-(icon)" class="cls-1" d="M1 8.47L21 1.5l-6.09 17.42-4.35-3.04-4.34 4.79v-6.1l8.27-8.29-9.14 4.37L1 8.47z" /></symbol><symbol viewBox="0 0 22 22" id="share"><path data-name="Share-(icon)" class="cls-1" d="M13.37 10.33a15.47 15.47 0 0 0-8.87 2.34c3.27-7 8.87-7 8.87-7V1l6.79 6.37a.86.86 0 0 1 0 1.27L13.37 15v-4.67zM11 2v2H3v15h14v-3.34l2-2V19a2 2 0 0 1-2 2H3a2 2 0 0 1-2-2V4a2 2 0 0 1 2-2z" /></symbol><symbol viewBox="0 0 22 22" id="star"><path class="cls-1" d="M11 17.6l-6.18 2.9.85-6.77L1 8.76l6.7-1.29 3.3-6 3.3 6L21 8.76l-4.67 5 .85 6.77z" /></symbol><symbol viewBox="0 0 22 22" id="star-outline"><path d="M11 15.39l3.74 1.76-.51-4.1 2.83-3L13 9.26l-2-3.62-2 3.62-4.06.74 2.83 3-.51 4.1zm0 2.21l-6.18 2.9.85-6.77L1 8.76l6.7-1.29 3.3-6 3.3 6L21 8.76l-4.67 5 .85 6.77z" /></symbol><symbol viewBox="0 0 22 22" id="star-rating"><path class="cls-1" d="M11 1a10 10 0 1 0 10 10A10 10 0 0 0 11 1zm3.71 15.5L11 15l-3.71 1.5.38-3.88L5 9.7l3.94-.85L11 5.5l2.06 3.35L17 9.7l-2.67 2.92z" /></symbol><symbol viewBox="0 0 34 34" id="star-rating-outline"><path d="M17 32A15 15 0 1 0 2 17a15 15 0 0 0 15 15zm0 2a17 17 0 1 1 17-17 17 17 0 0 1-17 17z" fill="#d3d3d3" /><path fill="#f1c663" d="M17.5 22.22l-5 2.16.52-5.42-3.6-4.09 5.31-1.18L17.5 9l2.77 4.69 5.31 1.18-3.6 4.09.52 5.42-5-2.16z" /></symbol><symbol viewBox="0 0 34 34" id="total-reviews"><path fill="none" d="M0 0h34v34H0z" /><path d="M5 6v25a1 1 0 0 0 1 1h22a1 1 0 0 0 1-1V6a1 1 0 0 0-1-1H6a1 1 0 0 0-1 1zM3 6a3 3 0 0 1 3-3h22a3 3 0 0 1 3 3v25a3 3 0 0 1-3 3H6a3 3 0 0 1-3-3z" fill="#d3d3d3" /><path d="M14.17 2H13a2 2 0 0 0-2 2v2h12V4a2 2 0 0 0-2-2h-1.17a3 3 0 0 0-5.66 0z" fill="#9f9f9f" /><path fill="#f1c663" d="M11 13.73l-1.85.77.19-1.94L8 11.1l1.97-.42L11 9l1.03 1.68 1.97.42-1.34 1.46.19 1.94-1.85-.77z" /><path fill="#d3d3d3" d="M16 11h9v2h-9z" /><path data-name="Star" fill="#f1c663" d="M11 20.73l-1.85.77.19-1.94L8 18.1l1.97-.42L11 16l1.03 1.68 1.97.42-1.34 1.46.19 1.94-1.85-.77z" /><path data-name="Rectangle-12" fill="#d3d3d3" d="M16 18h9v2h-9z" /><path data-name="Star" fill="#f1c663" d="M11 27.73l-1.85.77.19-1.94L8 25.1l1.97-.42L11 23l1.03 1.68 1.97.42-1.34 1.46.19 1.94-1.85-.77z" /><path data-name="Rectangle-12" fill="#d3d3d3" d="M16 25h9v2h-9z" /></symbol><symbol viewBox="0 0 23 8" id="triangle-delete"><path d="M11.5 0L23 8H0z" fill="#d8d8d8" /></symbol><symbol viewBox="0 0 22 22" id="twitter"><path class="cls-1" d="M21 4.8a8.19 8.19 0 0 1-2.36.65 4.12 4.12 0 0 0 1.8-2.27 8.27 8.27 0 0 1-2.61 1 4.11 4.11 0 0 0-7 3.74 11.65 11.65 0 0 1-8.44-4.29 4.11 4.11 0 0 0 1.27 5.48 4.1 4.1 0 0 1-1.86-.52v.05a4.11 4.11 0 0 0 3.29 4 4.16 4.16 0 0 1-1.09.17 3.94 3.94 0 0 1-.77-.08 4.1 4.1 0 0 0 3.83 2.85A8.23 8.23 0 0 1 2 17.34a8.72 8.72 0 0 1-1-.06 11.6 11.6 0 0 0 6.29 1.85A11.59 11.59 0 0 0 19 7.45v-.53a8.19 8.19 0 0 0 2-2.12z" /></symbol><symbol viewBox="0 0 14 14" id="unread"><circle data-name="Alert-(icon)" cx="7" cy="7" r="3" fill="#ee344f" /></symbol><symbol viewBox="0 0 14 14" id="upload"><path class="cls-1" d="M5.65 1.81a1.82 1.82 0 0 1 2.57-.15l.15.15 4.15 4.49H1.5zm-.93 4.5h4.59l-1.17 5.51a1.29 1.29 0 0 1-1.21 1h.17a1.3 1.3 0 0 1-1.21-1z" /></symbol><symbol viewBox="0 0 28 28" id="user"><path d="M18.24 13.33a4.27 4.27 0 0 0-.56 1.77 1.76 1.76 0 0 0 1.08 1.46h.07A43.39 43.39 0 0 1 23 18.9a4.19 4.19 0 0 1 1.75 2.66l.64 4.54S23.13 27 14 27s-11.5-.9-11.5-.9l.64-4.54a4.33 4.33 0 0 1 1.74-2.71 32.36 32.36 0 0 1 4.3-2.43 1.7 1.7 0 0 0 .7-1.42 4.7 4.7 0 0 0-.41-1.91A7.69 7.69 0 0 1 7.83 9V6.55A5.51 5.51 0 0 1 13.3 1h1.34a5.5 5.5 0 0 1 5.5 5.5V9a7.63 7.63 0 0 1-1.9 4.33zm-.84 4.75A3.39 3.39 0 0 1 15.69 15a5.75 5.75 0 0 1 .88-2.78l.33-.45a5.81 5.81 0 0 0 1.22-3.24V6.29A3.54 3.54 0 0 0 14.65 3h-1.38a3.59 3.59 0 0 0-3.48 3.29v2.29a5.28 5.28 0 0 0 1 2.92l.38.53a7.13 7.13 0 0 1 .68 3 3.6 3.6 0 0 1-1.67 3.16s-1 .46-1.33.64c-.74.38-1.41.77-2.09 1.2-.4.25-.66.42-.89.58a3.2 3.2 0 0 0-.79 1.29l-.37 2.65A74.88 74.88 0 0 0 14 25a74.78 74.78 0 0 0 9.22-.48L22.83 22a2.61 2.61 0 0 0-.65-1.27c-.17-.11-.63-.47-1.07-.73-.74-.44-1.55-.84-2.35-1.24-.25-.09-1.13-.53-1.35-.68z" /></symbol><symbol viewBox="0 0 14 10" id="view"><path d="M7 0C3.818 0 1.1 1.98 0 4.773c1.1 2.793 3.818 4.772 7 4.772s5.9-1.979 7-4.772A7.526 7.526 0 0 0 7 0zm0 7.955A3.183 3.183 0 0 1 7 1.59a3.183 3.183 0 0 1 0 6.364zm0-5.091c-1.056 0-1.91.852-1.91 1.909 0 1.056.854 1.909 1.91 1.909s1.91-.853 1.91-1.91c0-1.056-.854-1.908-1.91-1.908z" /></symbol></defs><use id="alert-error-usage" xlink:href="#alert-error" class="sprite-symbol-usage" /><use id="alert-notice-usage" xlink:href="#alert-notice" class="sprite-symbol-usage" /><use id="alert-success-usage" xlink:href="#alert-success" class="sprite-symbol-usage" /><use id="attachment-usage" xlink:href="#attachment" class="sprite-symbol-usage" /><use id="attending-usage" xlink:href="#attending" class="sprite-symbol-usage" /><use id="bag-usage" xlink:href="#bag" class="sprite-symbol-usage" /><use id="caret-usage" xlink:href="#caret" class="sprite-symbol-usage" /><use id="caret-slider-left-usage" xlink:href="#caret-slider-left" class="sprite-symbol-usage" /><use id="caret-slider-right-usage" xlink:href="#caret-slider-right" class="sprite-symbol-usage" /><use id="checkmark-usage" xlink:href="#checkmark" class="sprite-symbol-usage" /><use id="close-usage" xlink:href="#close" class="sprite-symbol-usage" /><use id="complete-usage" xlink:href="#complete" class="sprite-symbol-usage" /><use id="credit-card-usage" xlink:href="#credit-card" class="sprite-symbol-usage" /><use id="delete-usage" xlink:href="#delete" class="sprite-symbol-usage" /><use id="direct-usage" xlink:href="#direct" class="sprite-symbol-usage" /><use id="duplicate-usage" xlink:href="#duplicate" class="sprite-symbol-usage" /><use id="edit-usage" xlink:href="#edit" class="sprite-symbol-usage" /><use id="expand-usage" xlink:href="#expand" class="sprite-symbol-usage" /><use id="facebook-usage" xlink:href="#facebook" class="sprite-symbol-usage" /><use id="featured-arrow-usage" xlink:href="#featured-arrow" class="sprite-symbol-usage" /><use id="filter-usage" xlink:href="#filter" class="sprite-symbol-usage" /><use id="gamepad-usage" xlink:href="#gamepad" class="sprite-symbol-usage" /><use id="google-usage" xlink:href="#google" class="sprite-symbol-usage" /><use id="hamburger-usage" xlink:href="#hamburger" class="sprite-symbol-usage" /><use id="handcrafted-usage" xlink:href="#handcrafted" class="sprite-symbol-usage" /><use id="heart-usage" xlink:href="#heart" class="sprite-symbol-usage" /><use id="heart-outline-usage" xlink:href="#heart-outline" class="sprite-symbol-usage" /><use id="help-usage" xlink:href="#help" class="sprite-symbol-usage" /><use id="instagram-usage" xlink:href="#instagram" class="sprite-symbol-usage" /><use id="lock-usage" xlink:href="#lock" class="sprite-symbol-usage" /><use id="long-arrow-left-usage" xlink:href="#long-arrow-left" class="sprite-symbol-usage" /><use id="long-arrow-right-usage" xlink:href="#long-arrow-right" class="sprite-symbol-usage" /><use id="manage-usage" xlink:href="#manage" class="sprite-symbol-usage" /><use id="message-usage" xlink:href="#message" class="sprite-symbol-usage" /><use id="message-active-usage" xlink:href="#message-active" class="sprite-symbol-usage" /><use id="minus-usage" xlink:href="#minus" class="sprite-symbol-usage" /><use id="more-usage" xlink:href="#more" class="sprite-symbol-usage" /><use id="network-usage" xlink:href="#network" class="sprite-symbol-usage" /><use id="paypal-usage" xlink:href="#paypal" class="sprite-symbol-usage" /><use id="percentage-usage" xlink:href="#percentage" class="sprite-symbol-usage" /><use id="pin-usage" xlink:href="#pin" class="sprite-symbol-usage" /><use id="pinterest-usage" xlink:href="#pinterest" class="sprite-symbol-usage" /><use id="plus-usage" xlink:href="#plus" class="sprite-symbol-usage" /><use id="processing-usage" xlink:href="#processing" class="sprite-symbol-usage" /><use id="radio-usage" xlink:href="#radio" class="sprite-symbol-usage" /><use id="replied-usage" xlink:href="#replied" class="sprite-symbol-usage" /><use id="sales-usage" xlink:href="#sales" class="sprite-symbol-usage" /><use id="sales-average-usage" xlink:href="#sales-average" class="sprite-symbol-usage" /><use id="sales-bag-black-usage" xlink:href="#sales-bag-black" class="sprite-symbol-usage" /><use id="sales-bag-green-usage" xlink:href="#sales-bag-green" class="sprite-symbol-usage" /><use id="sales-outline-usage" xlink:href="#sales-outline" class="sprite-symbol-usage" /><use id="search-usage" xlink:href="#search" class="sprite-symbol-usage" /><use id="secure-usage" xlink:href="#secure" class="sprite-symbol-usage" /><use id="send-usage" xlink:href="#send" class="sprite-symbol-usage" /><use id="share-usage" xlink:href="#share" class="sprite-symbol-usage" /><use id="star-usage" xlink:href="#star" class="sprite-symbol-usage" /><use id="star-outline-usage" xlink:href="#star-outline" class="sprite-symbol-usage" /><use id="star-rating-usage" xlink:href="#star-rating" class="sprite-symbol-usage" /><use id="star-rating-outline-usage" xlink:href="#star-rating-outline" class="sprite-symbol-usage" /><use id="total-reviews-usage" xlink:href="#total-reviews" class="sprite-symbol-usage" /><use id="triangle-delete-usage" xlink:href="#triangle-delete" class="sprite-symbol-usage" /><use id="twitter-usage" xlink:href="#twitter" class="sprite-symbol-usage" /><use id="unread-usage" xlink:href="#unread" class="sprite-symbol-usage" /><use id="upload-usage" xlink:href="#upload" class="sprite-symbol-usage" /><use id="user-usage" xlink:href="#user" class="sprite-symbol-usage" /><use id="view-usage" xlink:href="#view" class="sprite-symbol-usage" /></svg>