<svg id="Layer_1" data-name="Layer 1" xmlns="http://www.w3.org/2000/svg" width="97" height="100" viewBox="0 0 97 100"><defs><style>.cls-1{fill:#fff;}</style></defs><title>shop-icon-white</title><path id="Shop-_icon_" data-name="Shop-(icon)" class="cls-1" d="M83.23,76.48V52a11.89,11.89,0,0,1-6.79-5,11.47,11.47,0,0,1-9.33,5.34A11.46,11.46,0,0,1,57.77,47a11.47,11.47,0,0,1-9.33,5.34A11.46,11.46,0,0,1,39.11,47a11.46,11.46,0,0,1-9.33,5.34A11.47,11.47,0,0,1,20.45,47a11.89,11.89,0,0,1-6.79,5V76.48Zm0,3.57H13.65V96.43H83.23ZM0,30V25L10.08,12.16v-7A5.12,5.12,0,0,1,15.19,0h66.5A5.12,5.12,0,0,1,86.8,5.11v7L96.89,25V41.22A11.62,11.62,0,0,1,86.8,52.28V97.69a1.81,1.81,0,0,0,0,.53A1.79,1.79,0,0,1,85,100H11.87a1.79,1.79,0,0,1-1.79-1.79V52.28A11.61,11.61,0,0,1,0,41.22ZM83.23,9.57V5.11a1.54,1.54,0,0,0-1.54-1.54H15.19a1.54,1.54,0,0,0-1.54,1.54V9.57Zm-5,31.65a7.55,7.55,0,1,0,15.09,0V31.8H3.57v9.41a8,8,0,0,0,7.54,7.55,8,8,0,0,0,7.54-7.55h3.57a8,8,0,0,0,7.55,7.55,8,8,0,0,0,7.54-7.55H40.9a8,8,0,0,0,7.54,7.55A8,8,0,0,0,56,41.22h3.57a8,8,0,0,0,7.54,7.55,8,8,0,0,0,7.55-7.55Zm-74.65-13H93.31v-2L83,13.14H13.85L3.57,26.23v2Zm48.2,60a3.33,3.33,0,1,1-3.33-3.33A3.33,3.33,0,0,1,51.77,88.24Z"/></svg>