<svg xmlns="http://www.w3.org/2000/svg" xmlns:xlink="http://www.w3.org/1999/xlink" width="256" height="256">
  <defs>
    <rect id="b" width="220" height="220" rx="13.5"/>
    <filter id="a" width="117.7%" height="117.7%" x="-8.9%" y="-8.9%" filterUnits="objectBoundingBox">
      <feOffset in="SourceAlpha" result="shadowOffsetOuter1"/>
      <feGaussianBlur in="shadowOffsetOuter1" result="shadowBlurOuter1" stdDeviation="6.5"/>
      <feColorMatrix in="shadowBlurOuter1" values="0 0 0 0 0.607843137 0 0 0 0 0.360784314 0 0 0 0 0.560784314 0 0 0 0.463485054 0"/>
    </filter>
  </defs>
  <g fill="none" fill-rule="evenodd">
    <g transform="translate(18 18)">
      <use fill="#000" filter="url(#a)" xlink:href="#b"/>
      <use fill="#FFF" xlink:href="#b"/>
    </g>
    <path fill="#9B5C8F" d="M73.436 88H182.51C189.412 88 195 93.604 195 100.527v41.759c0 6.923-5.588 12.527-12.49 12.527h-39.116L148.763 168l-23.612-13.187h-51.66c-6.903 0-12.49-5.604-12.49-12.527v-41.759C60.945 93.66 66.532 88 73.435 88z"/>
    <path fill="#FFF" fill-rule="nonzero" d="M66.93 99.009c.775-1.039 1.936-1.585 3.484-1.695 2.82-.218 4.423 1.094 4.81 3.936 1.713 11.425 3.593 21.1 5.583 29.027l12.108-22.795c1.105-2.077 2.488-3.17 4.146-3.28 2.433-.164 3.925 1.367 4.533 4.592 1.383 7.27 3.152 13.447 5.253 18.695 1.437-13.885 3.87-23.888 7.297-30.065.83-1.531 2.046-2.296 3.649-2.406 1.272-.109 2.432.274 3.483 1.094 1.05.82 1.603 1.858 1.714 3.115.055.984-.11 1.804-.553 2.624-2.156 3.936-3.925 10.55-5.363 19.734-1.382 8.91-1.88 15.853-1.548 20.828.11 1.366-.11 2.569-.663 3.607-.664 1.203-1.659 1.859-2.93 1.968-1.438.11-2.93-.546-4.368-2.022-5.141-5.193-9.232-12.956-12.218-23.287-3.593 6.997-6.247 12.244-7.96 15.743-3.263 6.177-6.027 9.348-8.349 9.512-1.492.109-2.764-1.148-3.87-3.772-2.82-7.161-5.86-20.991-9.122-41.49-.166-1.422.11-2.68.885-3.663zM184.412 108.814c-1.94-3.519-4.798-5.641-8.626-6.479a13.68 13.68 0 0 0-2.911-.335c-5.176 0-9.381 2.793-12.67 8.378-2.803 4.747-4.205 9.997-4.205 15.75 0 4.3.863 7.986 2.588 11.058 1.94 3.519 4.798 5.641 8.626 6.479a13.68 13.68 0 0 0 2.911.335c5.23 0 9.435-2.793 12.67-8.378 2.803-4.803 4.205-10.053 4.205-15.806 0-4.356-.863-7.986-2.588-11.002zm-6.793 15.47c-.755 3.687-2.102 6.423-4.097 8.267-1.564 1.452-3.02 2.066-4.367 1.787-1.294-.28-2.372-1.452-3.181-3.63-.647-1.732-.97-3.463-.97-5.083 0-1.396.107-2.793.377-4.077a18.386 18.386 0 0 1 2.857-6.646c1.78-2.737 3.666-3.854 5.607-3.463 1.294.28 2.372 1.452 3.181 3.63.647 1.732.97 3.463.97 5.083 0 1.452-.161 2.848-.377 4.133zM150.412 108.814c-1.94-3.519-4.852-5.641-8.626-6.479a13.68 13.68 0 0 0-2.911-.335c-5.176 0-9.381 2.793-12.67 8.378-2.803 4.747-4.205 9.997-4.205 15.75 0 4.3.863 7.986 2.588 11.058 1.94 3.519 4.798 5.641 8.626 6.479a13.68 13.68 0 0 0 2.911.335c5.23 0 9.435-2.793 12.67-8.378 2.803-4.803 4.205-10.053 4.205-15.806 0-4.356-.863-7.986-2.588-11.002zm-6.793 15.47c-.755 3.687-2.102 6.423-4.097 8.267-1.564 1.452-3.02 2.066-4.367 1.787-1.294-.28-2.372-1.452-3.181-3.63-.647-1.732-.97-3.463-.97-5.083 0-1.396.107-2.793.377-4.077a18.386 18.386 0 0 1 2.857-6.646c1.78-2.737 3.666-3.854 5.607-3.463 1.294.28 2.372 1.452 3.181 3.63.647 1.732.97 3.463.97 5.083 0 1.452-.107 2.848-.377 4.133z"/>
  </g>
</svg>