<?xml version="1.0" encoding="UTF-8"?> <svg xmlns="http://www.w3.org/2000/svg" xmlns:xlink="http://www.w3.org/1999/xlink" width="1600" height="701"><defs><path id="a" d="M0 0h1600v701H0z"></path></defs><g fill="none" fill-rule="evenodd"><mask id="b" fill="#fff"><use xlink:href="#a"></use></mask><use fill="#5BF0C5" xlink:href="#a"></use><g mask="url(#b)"><path d="M75 667H26c-18.778 0-34 15.222-34 34h49c18.778 0 34-15.222 34-34z" fill="#FF8372"></path><path d="M198 305h-21c-27.062 0-49 21.938-49 49h21c27.062 0 49-21.938 49-49zM32 342h12c15.464 0 28 12.536 28 28H60c-15.464 0-28-12.536-28-28zM192 342h12c15.464 0 28 12.536 28 28h-12c-15.464 0-28-12.536-28-28zM-18 270c13.255 0 24 10.745 24 24v16c-13.255 0-24-10.745-24-24v-16zM16 310h10c16.569 0 30-13.431 30-30H46c-16.569 0-30 13.431-30 30z" fill="#7C93A2" opacity=".4"></path><path d="M-51 388h37c25.405 0 46-20.595 46-46H-5c-25.405 0-46 20.595-46 46z" fill="#AAE371"></path><path d="M197 296h67c18.778 0 34-15.222 34-34h-67c-18.778 0-34 15.222-34 34zM298 262h16c18.778 0 34 15.222 34 34h-16c-18.778 0-34-15.222-34-34z" fill="#7C93A2" opacity=".4"></path><path d="M202 444h16c18.778 0 34-15.222 34-34h-16c-18.778 0-34 15.222-34 34z" fill="#7C93A2" opacity=".2"></path><path d="M338 372c-22.091 0-40-17.909-40-40v-26c22.091 0 40 17.909 40 40v26z" fill="#7C93A2" opacity=".4"></path><path d="M248 242h30c11.046 0 20 8.954 20 20h-30c-11.046 0-20-8.954-20-20z" fill="#7C93A2" opacity=".2"></path><path d="M256 356h-10c-7.732 0-14 6.268-14 14h10c7.732 0 14-6.268 14-14zM184 281c-5.523 0-10 4.477-10 10v4c5.523 0 10-4.477 10-10v-4z" fill="#7C93A2" opacity=".4"></path><path d="M219 384c-5.523 0-10 4.477-10 10v4c5.523 0 10-4.477 10-10v-4z" fill="#FE7194"></path><path d="M219 384c-5.523 0-10 4.477-10 10v4c5.523 0 10-4.477 10-10v-4z" fill="#7C93A2" opacity=".4"></path><path d="M132 470c-5.523 0-10 4.477-10 10v4c5.523 0 10-4.477 10-10v-4z" fill="#FE7194"></path><path d="M94 268h-6c-8.284 0-15 6.716-15 15h6c8.284 0 15-6.716 15-15zM60 378h49c18.778 0 34 15.222 34 34H94c-18.778 0-34-15.222-34-34zM144 283h-36c-18.778 0-34 15.222-34 34h36c18.778 0 34-15.222 34-34z" fill="#7C93A2" opacity=".4"></path><path d="M174 264h-10c-11.046 0-20 8.954-20 20h10c11.046 0 20-8.954 20-20z" fill="#69B7FC"></path><path d="M209 305h6c18.778 0 34 15.222 34 34h-6c-18.778 0-34-15.222-34-34z" fill="#FF8372"></path><path d="M289 305h-6c-18.778 0-34 15.222-34 34h6c18.778 0 34-15.222 34-34z" fill="#7C93A2" opacity=".4"></path><path d="M32 320h25c8.284 0 15 6.716 15 15H47c-8.284 0-15-6.716-15-15z" fill="#7C93A2" opacity=".2"></path><path d="M15 417h35c15.464 0 28 12.536 28 28H43c-15.464 0-28-12.536-28-28zM122 325c-13.255 0-24 10.745-24 24v22c13.255 0 24-10.745 24-24v-22zM5 397c-13.255 0-24 10.745-24 24v16c13.255 0 24-10.745 24-24v-16z" fill="#7C93A2" opacity=".4"></path><path d="M265 355c13.255 0 24 10.745 24 24v22c-13.255 0-24-10.745-24-24v-22z" fill="#7C93A2" opacity=".2"></path><path d="M322 384c-13.255 0-24 10.745-24 24v22c13.255 0 24-10.745 24-24v-22zM292 430h-20c-11.046 0-20-8.954-20-20h20c11.046 0 20 8.954 20 20z" fill="#7C93A2" opacity=".4"></path><path d="M191 477c-22.091 0-40-17.909-40-40v-26c22.091 0 40 17.909 40 40v26z" fill="#57E5C7"></path><path d="M370 462c-26.51 0-48-21.49-48-48v-30c26.51 0 48 21.49 48 48v30zM84 450h30c16.569 0 30-13.431 30-30h-30c-16.569 0-30 13.431-30 30zM78 337c11.046 0 20 8.954 20 20v14c-11.046 0-20-8.954-20-20v-14zM198 403h-21c-27.062 0-49-21.938-49-49h21c27.062 0 49 21.938 49 49zM52 404c-8.284 0-15-6.716-15-15v-9c8.284 0 15 6.716 15 15v9z" fill="#7C93A2" opacity=".2"></path><path d="M17 410c11.046 0 20-8.954 20-20v-10c-11.046 0-20 8.954-20 20v10z" fill="#7C93A2" opacity=".4"></path><path d="M232 370c11.046 0 20 8.954 20 20v10c-11.046 0-20-8.954-20-20v-10z" fill="#7C93A2" opacity=".2"></path><g><path d="M242 611h-21c-27.062 0-49-21.938-49-49h21c27.062 0 49 21.938 49 49z" fill="#FF8372"></path><path d="M76 574h12c15.464 0 28-12.536 28-28h-12c-15.464 0-28 12.536-28 28z" fill="#7C93A2" opacity=".203"></path><path d="M148 513h12c15.464 0 28-12.536 28-28h-12c-15.464 0-28 12.536-28 28z" fill="#7C93A2" opacity=".2"></path><path d="M5 653h12c15.464 0 28-12.536 28-28H33c-15.464 0-28 12.536-28 28zM45 625c13.255 0 24-10.745 24-24v-16c-13.255 0-24 10.745-24 24v16zM68 629c8.284 0 15 6.716 15 15v15c-8.284 0-15-6.716-15-15v-15zM-7 528h37c25.405 0 46 20.595 46 46H39c-25.405 0-46-20.595-46-46z" fill="#7C93A2" opacity=".397"></path><path d="M241 505h67c18.778 0 34 15.222 34 34h-67c-18.778 0-34-15.222-34-34z" fill="#7C93A2" opacity=".203"></path><path d="M342 539h29c18.778 0 34-15.222 34-34h-29c-18.778 0-34 15.222-34 34z" fill="#7C93A2" opacity=".4"></path><path d="M292 559h30c11.046 0 20-8.954 20-20h-30c-11.046 0-20 8.954-20 20z" fill="#FE7194"></path><path d="M212 499h-10c-7.732 0-14-6.268-14-14h10c7.732 0 14 6.268 14 14z" fill="#7C93A2" opacity=".4"></path><path d="M228 635c-5.523 0-10-4.477-10-10v-4c5.523 0 10 4.477 10 10v4z" fill="#7C93A2" opacity=".397"></path><path d="M138 673c-11.598 0-21-9.402-21-21v-19c11.598 0 21 9.402 21 21v19z" fill="#7E83FF"></path><path d="M60 500h49c18.778 0 34 15.222 34 34H94c-18.778 0-34-15.222-34-34zM188 633h-36c-18.778 0-34-15.222-34-34h36c18.778 0 34 15.222 34 34z" fill="#7C93A2" opacity=".397"></path><path d="M218 652h-10c-11.046 0-20-8.954-20-20h10c11.046 0 20 8.954 20 20z" fill="#7C93A2" opacity=".396"></path><path d="M286 562h-10c-11.046 0-20 8.954-20 20h10c11.046 0 20-8.954 20-20z" fill="#7C93A2" opacity=".4"></path><path d="M148 667h6c18.778 0 34-15.222 34-34h-6c-18.778 0-34 15.222-34 34z" fill="#7C93A2" opacity=".203"></path><path d="M183 688h44c14.36 0 26-11.64 26-26h-44c-14.36 0-26 11.64-26 26z" fill="#7C93A2" opacity=".396"></path><path d="M253 496h6c18.778 0 34-15.222 34-34h-6c-18.778 0-34 15.222-34 34z" fill="#7C93A2" opacity=".2"></path><path d="M333 496h-6c-18.778 0-34-15.222-34-34h6c18.778 0 34 15.222 34 34z" fill="#7C93A2" opacity=".4"></path><path d="M76 596h25c8.284 0 15-6.716 15-15H91c-8.284 0-15 6.716-15 15z" fill="#7C93A2" opacity=".397"></path><path d="M-37 554h12c15.464 0 28 12.536 28 28H-9c-15.464 0-28-12.536-28-28z" fill="#7C93A2" opacity=".4"></path><path d="M-18 591h29c18.778 0 34 15.222 34 34H16c-18.778 0-34-15.222-34-34z" fill="#7C93A2" opacity=".203"></path><path d="M166 591c-13.255 0-24-10.745-24-24v-22c13.255 0 24 10.745 24 24v22z" fill="#7C93A2" opacity=".397"></path><path d="M87 659c13.255 0 24-10.745 24-24v-31c-13.255 0-24 10.745-24 24v31z" fill="#7C93A2" opacity=".203"></path><path d="M49 519c-13.255 0-24-10.745-24-24v-25c13.255 0 24 10.745 24 24v25z" fill="#7C93A2" opacity=".2"></path><path d="M21 521H9c-15.464 0-28-12.536-28-28h12c15.464 0 28 12.536 28 28z" fill="#7C93A2" opacity=".4"></path><path d="M122 579c11.046 0 20-8.954 20-20v-14c-11.046 0-20 8.954-20 20v14z" fill="#7E83FF"></path><path d="M222 513h-1c-27.062 0-49 21.938-49 49h1c27.062 0 49-21.938 49-49z" fill="#7C93A2" opacity=".397"></path><path d="M14 445h-52c-27.062 0-49 21.938-49 49h52c27.062 0 49-21.938 49-49z" fill="#FFC466"></path><path d="M96 469c-8.284 0-15 6.716-15 15v9c8.284 0 15-6.716 15-15v-9z" fill="#7C93A2" opacity=".4"></path><path d="M61 463c11.046 0 20 8.954 20 20v10c-11.046 0-20-8.954-20-20v-10z" fill="#AAE371"></path></g><g><path d="M128 53h-20c-11.046 0-20 8.954-20 20h20c11.046 0 20-8.954 20-20z" fill="#FF8372"></path><path d="M88 73c-13.255 0-24 10.745-24 24v43c13.255 0 24-10.745 24-24V73z" fill="#7C93A2" opacity=".2"></path><path d="M55 102c-8.284 0-15-6.716-15-15V72c8.284 0 15 6.716 15 15v15z" fill="#FE7194"></path><path d="M79 203H42c-25.405 0-46-20.595-46-46h37c25.405 0 46 20.595 46 46zM-15 83h6c8.284 0 15 6.716 15 15H0c-8.284 0-15-6.716-15-15z" fill="#7C93A2" opacity=".4"></path><path d="M-65 98h36c18.778 0 34 15.222 34 34h-36c-18.778 0-34-15.222-34-34z" fill="#7C93A2" opacity=".2"></path><path d="M111 178H99c-15.464 0-28-12.536-28-28h12c15.464 0 28 12.536 28 28z" fill="#FE7194"></path><path d="M111 178h12c15.464 0 28-12.536 28-28h-12c-15.464 0-28 12.536-28 28z" fill="#7C93A2" opacity=".2"></path><path d="M151 107h-29c-18.778 0-34-15.222-34-34h29c18.778 0 34 15.222 34 34zM36 72c-13.255 0-24 10.745-24 24v31c13.255 0 24-10.745 24-24V72z" fill="#7C93A2" opacity=".4"></path><path d="M23 212c13.255 0 24 10.745 24 24v25c-13.255 0-24-10.745-24-24v-25z" fill="#7C93A2" opacity=".2"></path><path d="M57 221h30c22.091 0 40 17.909 40 40H97c-22.091 0-40-17.909-40-40zM109 188h1c27.062 0 49 21.938 49 49h-1c-27.062 0-49-21.938-49-49zM11 241c-11.046 0-20-8.954-20-20v-26c11.046 0 20 8.954 20 20v26z" fill="#7C93A2" opacity=".4"></path></g></g><g mask="url(#b)"><path d="M1633 346h-21c-27.062 0-49 21.938-49 49h21c27.062 0 49-21.938 49-49zM1467 383h12c15.464 0 28 12.536 28 28h-12c-15.464 0-28-12.536-28-28z" fill="#57E5C7"></path><path d="M1396 304h12c15.464 0 28 12.536 28 28h-12c-15.464 0-28-12.536-28-28z" fill="#FFC466"></path><path d="M1436 332c13.255 0 24 10.745 24 24v16c-13.255 0-24-10.745-24-24v-16zM1459 328c8.284 0 15-6.716 15-15v-15c-8.284 0-15 6.716-15 15v15z" fill="#7C93A2" opacity=".4"></path><path d="M1384 429h37c25.405 0 46-20.595 46-46h-37c-25.405 0-46 20.595-46 46z" fill="#69B7FC"></path><path d="M1529 309h-6c-8.284 0-15 6.716-15 15h6c8.284 0 15-6.716 15-15z" fill="#7E83FF"></path><path d="M1495 419h49c18.778 0 34 15.222 34 34h-49c-18.778 0-34-15.222-34-34zM1579 324h-36c-18.778 0-34 15.222-34 34h36c18.778 0 34-15.222 34-34z" fill="#7C93A2" opacity=".4"></path><path d="M1609 305h-10c-11.046 0-20 8.954-20 20h10c11.046 0 20-8.954 20-20z" fill="#FF8372"></path><path d="M1539 290h6c18.778 0 34 15.222 34 34h-6c-18.778 0-34-15.222-34-34z" fill="#7C93A2" opacity=".2"></path><path d="M1574 269h44c14.36 0 26 11.64 26 26h-44c-14.36 0-26-11.64-26-26z" fill="#57E5C7"></path><path d="M1467 361h25c8.284 0 15 6.716 15 15h-25c-8.284 0-15-6.716-15-15z" fill="#7C93A2" opacity=".2"></path><path d="M1354 403h12c15.464 0 28-12.536 28-28h-12c-15.464 0-28 12.536-28 28z" fill="#7C93A2" opacity=".4"></path><path d="M1450 458h35c15.464 0 28 12.536 28 28h-35c-15.464 0-28-12.536-28-28zM1354 403h-12c-15.464 0-28-12.536-28-28h12c15.464 0 28 12.536 28 28zM1373 366h29c18.778 0 34-15.222 34-34h-29c-18.778 0-34 15.222-34 34z" fill="#7C93A2" opacity=".2"></path><path d="M1557 366c-13.255 0-24 10.745-24 24v22c13.255 0 24-10.745 24-24v-22z" fill="#AAE371"></path><path d="M1478 298c13.255 0 24 10.745 24 24v31c-13.255 0-24-10.745-24-24v-31z" fill="#7C93A2" opacity=".2"></path><path d="M1440 438c-13.255 0-24 10.745-24 24v16c13.255 0 24-10.745 24-24v-16z" fill="#57E5C7"></path><path d="M1412 436h-12c-15.464 0-28 12.536-28 28h12c15.464 0 28-12.536 28-28z" fill="#7C93A2" opacity=".4"></path><path d="M1626 518c-22.091 0-40-17.909-40-40v-26c22.091 0 40 17.909 40 40v26z" fill="#57E5C7"></path><path d="M1519 491h30c16.569 0 30-13.431 30-30h-30c-16.569 0-30 13.431-30 30zM1513 378c11.046 0 20 8.954 20 20v14c-11.046 0-20-8.954-20-20v-14zM1633 444h-21c-27.062 0-49-21.938-49-49h21c27.062 0 49 21.938 49 49z" fill="#7C93A2" opacity=".4"></path><path d="M1374 414h-21c-27.062 0-49 21.938-49 49h21c27.062 0 49-21.938 49-49z" fill="#7C93A2" opacity=".2"></path><path d="M1254 383c27.614 0 50 22.386 50 50v30c-27.614 0-50-22.386-50-50v-30zM1387 512h-34c-27.062 0-49-21.938-49-49h34c27.062 0 49 21.938 49 49z" fill="#7C93A2" opacity=".4"></path><path d="M1487 445c-8.284 0-15-6.716-15-15v-9c8.284 0 15 6.716 15 15v9z" fill="#FFC466"></path><path d="M1452 451c11.046 0 20-8.954 20-20v-10c-11.046 0-20 8.954-20 20v10z" fill="#7C93A2" opacity=".4"></path><g><path d="M1437 575h21c27.062 0 49 21.938 49 49h-21c-27.062 0-49-21.938-49-49z" fill="#7C93A2" opacity=".4"></path><path d="M1603 612h-12c-15.464 0-28 12.536-28 28h12c15.464 0 28-12.536 28-28z" fill="#57E5C7"></path><path d="M1443 612h-12c-15.464 0-28 12.536-28 28h12c15.464 0 28-12.536 28-28z" fill="#69B7FC"></path><path d="M1611 557c-8.284 0-15-6.716-15-15v-15c8.284 0 15 6.716 15 15v15zM1438 566h-67c-18.778 0-34-15.222-34-34h67c18.778 0 34 15.222 34 34z" fill="#7C93A2" opacity=".4"></path><path d="M1337 532c0 18.778-15.222 34-34 34h-29c0-18.778 15.222-34 34-34h29z" fill="#7C93A2" opacity=".2"></path><path d="M1297 657c22.091 0 40-17.909 40-40v-41c-22.091 0-40 17.909-40 40v41z" fill="#7C93A2" opacity=".4"></path><path d="M1387 512h-30c-11.046 0-20 8.954-20 20h30c11.046 0 20-8.954 20-20z" fill="#FE7194"></path><path d="M1379 626h10c7.732 0 14 6.268 14 14h-10c-7.732 0-14-6.268-14-14zM1451 551c5.523 0 10 4.477 10 10v4c-5.523 0-10-4.477-10-10v-4zM1541 513c11.598 0 21 9.402 21 21v19c-11.598 0-21-9.402-21-21v-19zM1575 648h-49c-18.778 0-34 15.222-34 34h49c18.778 0 34-15.222 34-34zM1491 553h36c18.778 0 34 15.222 34 34h-36c-18.778 0-34-15.222-34-34z" fill="#7C93A2" opacity=".4"></path><path d="M1461 534h10c11.046 0 20 8.954 20 20h-10c-11.046 0-20-8.954-20-20z" fill="#FF8372"></path><path d="M1393 509h10c11.046 0 20-8.954 20-20h-10c-11.046 0-20 8.954-20 20z" fill="#69B7FC"></path><path d="M1531 519h-6c-18.778 0-34 15.222-34 34h6c18.778 0 34-15.222 34-34z" fill="#7C93A2" opacity=".2"></path><path d="M1496 498h-44c-14.36 0-26 11.64-26 26h44c14.36 0 26-11.64 26-26zM1426 575c0 18.778-15.222 34-34 34h-6c0-18.778 15.222-34 34-34h6z" fill="#7C93A2" opacity=".4"></path><path d="M1346 575h6c18.778 0 34 15.222 34 34h-6c-18.778 0-34-15.222-34-34z" fill="#7C93A2" opacity=".2"></path><path d="M1603 590h-25c-8.284 0-15 6.716-15 15h25c8.284 0 15-6.716 15-15z" fill="#FE7194"></path><path d="M1513 595c13.255 0 24 10.745 24 24v22c-13.255 0-24-10.745-24-24v-22z" fill="#AAE371"></path><path d="M1592 527c-13.255 0-24 10.745-24 24v31c13.255 0 24-10.745 24-24v-31z" fill="#7C93A2" opacity=".2"></path><path d="M1557 607v14c0 11.046-8.954 20-20 20v-14c0-11.046 8.954-20 20-20z" fill="#7C93A2" opacity=".4"></path><path d="M1457 673c0-27.062 21.938-49 49-49h1c0 27.062-21.938 49-49 49h-1zM1583 674c8.284 0 15-6.716 15-15v-9c-8.284 0-15 6.716-15 15v9z" fill="#7C93A2" opacity=".2"></path></g><g><path d="M1127 577h-12c-15.464 0-28 12.536-28 28h12c15.464 0 28-12.536 28-28zM1289 473h-20c-11.046 0-20 8.954-20 20h20c11.046 0 20-8.954 20-20z" fill="#7C93A2" opacity=".2"></path><path d="M1249 493c-13.255 0-24 10.745-24 24v43c13.255 0 24-10.745 24-24v-43z" fill="#7C93A2" opacity=".4"></path><path d="M1216 522c-8.284 0-15-6.716-15-15v-15c8.284 0 15 6.716 15 15v15z" fill="#FE7194"></path><path d="M1210 623h-37c-25.405 0-46-20.595-46-46h37c25.405 0 46 20.595 46 46zM1146 503h6c8.284 0 15 6.716 15 15h-6c-8.284 0-15-6.716-15-15z" fill="#7C93A2" opacity=".4"></path><path d="M1444 650h-49c-18.778 0-34 15.222-34 34h49c18.778 0 34-15.222 34-34z" fill="#7E83FF"></path><path d="M1096 518h36c18.778 0 34 15.222 34 34h-36c-18.778 0-34-15.222-34-34z" fill="#7C93A2" opacity=".4"></path><path d="M1136 484h-6c-18.778 0-34 15.222-34 34h6c18.778 0 34-15.222 34-34z" fill="#7C93A2" opacity=".2"></path><path d="M1242 598h-12c-15.464 0-28-12.536-28-28h12c15.464 0 28 12.536 28 28z" fill="#7C93A2" opacity=".4"></path><path d="M1242 598h12c15.464 0 28-12.536 28-28h-12c-15.464 0-28 12.536-28 28z" fill="#7C93A2" opacity=".2"></path><path d="M1312 527h-29c-18.778 0-34-15.222-34-34h29c18.778 0 34 15.222 34 34zM1080 619c13.255 0 24 10.745 24 24v22c-13.255 0-24-10.745-24-24v-22z" fill="#7C93A2" opacity=".4"></path><path d="M1197 492c-13.255 0-24 10.745-24 24v31c13.255 0 24-10.745 24-24v-31z" fill="#7C93A2" opacity=".2"></path><path d="M1312 667c13.255 0 24 10.745 24 24v25c-13.255 0-24-10.745-24-24v-25z" fill="#57E5C7"></path><path d="M1230 677h30c22.091 0 40 17.909 40 40h-30c-22.091 0-40-17.909-40-40z" fill="#7C93A2" opacity=".4"></path><path d="M1124 631c-11.046 0-20 8.954-20 20v14c11.046 0 20-8.954 20-20v-14z" fill="#FE7194"></path><path d="M1124 694h5c32.033 0 58-25.967 58-58h-5c-32.033 0-58 25.967-58 58zM1240 608h1c27.062 0 49 21.938 49 49h-1c-27.062 0-49-21.938-49-49z" fill="#7C93A2" opacity=".4"></path><path d="M1199 661c8.284 0 15-6.716 15-15v-9c-8.284 0-15 6.716-15 15v9z" fill="#FFC466"></path><path d="M1234 667c-11.046 0-20-8.954-20-20v-10c11.046 0 20 8.954 20 20v10z" fill="#7C93A2" opacity=".2"></path></g></g></g></svg> 