<?xml version="1.0" encoding="UTF-8"?> <svg xmlns="http://www.w3.org/2000/svg" xmlns:xlink="http://www.w3.org/1999/xlink" width="1600" height="536"><defs><path id="a" d="M0 0h1600v536H0z"></path></defs><g fill="none" fill-rule="evenodd"><mask id="b" fill="#fff"><use xlink:href="#a"></use></mask><use fill="#1C313F" xlink:href="#a"></use><g fill="#7C93A2" opacity=".395" mask="url(#b)"><path d="M209 93h-21c-27.062 0-49-21.938-49-49h21c27.062 0 49 21.938 49 49z" opacity=".4"></path><path d="M43 56h12c15.464 0 28-12.536 28-28H71c-15.464 0-28 12.536-28 28zM203 56h12c15.464 0 28-12.536 28-28h-12c-15.464 0-28 12.536-28 28z" opacity=".2"></path><path d="M-7 128c13.255 0 24-10.745 24-24V88C3.745 88-7 98.745-7 112v16zM27 88h10c16.569 0 30 13.431 30 30H57c-16.569 0-30-13.431-30-30zM-40 10h37c25.405 0 46 20.595 46 46H6c-25.405 0-46-20.595-46-46zM208 102h67c18.778 0 34 15.222 34 34h-67c-18.778 0-34-15.222-34-34zM309 136h16c18.778 0 34-15.222 34-34h-16c-18.778 0-34 15.222-34 34zM349 26c-22.091 0-40 17.909-40 40v26c22.091 0 40-17.909 40-40V26z" opacity=".4"></path><path d="M259 156h30c11.046 0 20-8.954 20-20h-30c-11.046 0-20 8.954-20 20z" opacity=".2"></path><path d="M267 42h-10c-7.732 0-14-6.268-14-14h10c7.732 0 14 6.268 14 14zM195 117c-5.523 0-10-4.477-10-10v-4c5.523 0 10 4.477 10 10v4zM230 14c-5.523 0-10-4.477-10-10V0c5.523 0 10 4.477 10 10v4zM105 130h-6c-8.284 0-15-6.716-15-15h6c8.284 0 15 6.716 15 15zM71 20h49c18.778 0 34-15.222 34-34h-49C86.222-14 71 1.222 71 20zM155 115h-36c-18.778 0-34-15.222-34-34h36c18.778 0 34 15.222 34 34z" opacity=".4"></path><path d="M185 134h-10c-11.046 0-20-8.954-20-20h10c11.046 0 20 8.954 20 20zM220 93h6c18.778 0 34-15.222 34-34h-6c-18.778 0-34 15.222-34 34z" opacity=".2"></path><path d="M300 93h-6c-18.778 0-34-15.222-34-34h6c18.778 0 34 15.222 34 34z" opacity=".4"></path><path d="M43 78h25c8.284 0 15-6.716 15-15H58c-8.284 0-15 6.716-15 15z" opacity=".2"></path><path d="M133 73c-13.255 0-24-10.745-24-24V27c13.255 0 24 10.745 24 24v22zM16 1C2.745 1-8-9.745-8-23v-16c13.255 0 24 10.745 24 24V1z" opacity=".4"></path><path d="M276 43c13.255 0 24-10.745 24-24V-3c-13.255 0-24 10.745-24 24v22z" opacity=".2"></path><path d="M333 14c-13.255 0-24-10.745-24-24v-22c13.255 0 24 10.745 24 24v22z" opacity=".4"></path><path d="M381-64c-26.51 0-48 21.49-48 48v30c26.51 0 48-21.49 48-48v-30zM89 61c11.046 0 20-8.954 20-20V27c-11.046 0-20 8.954-20 20v14zM209-5h-21c-27.062 0-49 21.938-49 49h21c27.062 0 49-21.938 49-49zM63-6C54.716-6 48 .716 48 9v9c8.284 0 15-6.716 15-15v-9z" opacity=".2"></path><path d="M28-12c11.046 0 20 8.954 20 20v10C36.954 18 28 9.046 28-2v-10z" opacity=".4"></path><path d="M243 28c11.046 0 20-8.954 20-20V-2c-11.046 0-20 8.954-20 20v10z" opacity=".2"></path><g><path d="M722 8h-21c-27.062 0-49 21.938-49 49h21c27.062 0 49-21.938 49-49z" opacity=".2"></path><path d="M556 45h12c15.464 0 28 12.536 28 28h-12c-15.464 0-28-12.536-28-28z" opacity=".203"></path><path d="M628 106h12c15.464 0 28 12.536 28 28h-12c-15.464 0-28-12.536-28-28z" opacity=".2"></path><path d="M525-6c13.255 0 24 10.745 24 24v16c-13.255 0-24-10.745-24-24V-6zM473 91h37c25.405 0 46-20.595 46-46h-37c-25.405 0-46 20.595-46 46z" opacity=".397"></path><path d="M721 114h67c18.778 0 34-15.222 34-34h-67c-18.778 0-34 15.222-34 34z" opacity=".203"></path><path d="M822 80h29c18.778 0 34 15.222 34 34h-29c-18.778 0-34-15.222-34-34z" opacity=".4"></path><path d="M393 82c-22.091 0-40-17.909-40-40V27c22.091 0 40 17.909 40 40v15z" opacity=".2"></path><path d="M772 60h30c11.046 0 20 8.954 20 20h-30c-11.046 0-20-8.954-20-20zM692 120h-10c-7.732 0-14 6.268-14 14h10c7.732 0 14-6.268 14-14z" opacity=".4"></path><path d="M540 119h49c18.778 0 34-15.222 34-34h-49c-18.778 0-34 15.222-34 34zM668-14h-36c-18.778 0-34 15.222-34 34h36c18.778 0 34-15.222 34-34z" opacity=".397"></path><path d="M766 57h-10c-11.046 0-20-8.954-20-20h10c11.046 0 20 8.954 20 20z" opacity=".4"></path><path d="M733 123h6c18.778 0 34 15.222 34 34h-6c-18.778 0-34-15.222-34-34z" opacity=".2"></path><path d="M556 23h25c8.284 0 15 6.716 15 15h-25c-8.284 0-15-6.716-15-15z" opacity=".397"></path><path d="M443 65h12c15.464 0 28-12.536 28-28h-12c-15.464 0-28 12.536-28 28z" opacity=".2"></path><path d="M443 65h-12c-15.464 0-28-12.536-28-28h12c15.464 0 28 12.536 28 28z" opacity=".4"></path><path d="M462 28h29c18.778 0 34-15.222 34-34h-29c-18.778 0-34 15.222-34 34z" opacity=".203"></path><path d="M646 28c-13.255 0-24 10.745-24 24v22c13.255 0 24-10.745 24-24V28z" opacity=".397"></path><path d="M567-40c13.255 0 24 10.745 24 24v31c-13.255 0-24-10.745-24-24v-31z" opacity=".203"></path><path d="M529 100c-13.255 0-24 10.745-24 24v25c13.255 0 24-10.745 24-24v-25z" opacity=".2"></path><path d="M501 98h-12c-15.464 0-28 12.536-28 28h12c15.464 0 28-12.536 28-28z" opacity=".4"></path><path d="M602 40c11.046 0 20 8.954 20 20v14c-11.046 0-20-8.954-20-20V40z" opacity=".2"></path><path d="M702 106h-1c-27.062 0-49-21.938-49-49h1c27.062 0 49 21.938 49 49z" opacity=".397"></path><path d="M463 76h-21c-27.062 0-49 21.938-49 49h21c27.062 0 49-21.938 49-49z" opacity=".4"></path><path d="M494 174h-52c-27.062 0-49-21.938-49-49h52c27.062 0 49 21.938 49 49z" opacity=".2"></path><path d="M576 150c-8.284 0-15-6.716-15-15v-9c8.284 0 15 6.716 15 15v9z" opacity=".4"></path><path d="M541 156c11.046 0 20-8.954 20-20v-10c-11.046 0-20 8.954-20 20v10z" opacity=".2"></path></g><path d="M421 15h-25c-8.284 0-15-6.716-15-15h25c8.284 0 15 6.716 15 15z" opacity=".2"></path><path d="M442 6c13.255 0 24-10.745 24-24v-22c-13.255 0-24 10.745-24 24V6z" opacity=".4"></path><path d="M442 6c-11.046 0-20-8.954-20-20v-14c11.046 0 20 8.954 20 20V6z" opacity=".2"></path><g><path d="M882 34h-12c-15.464 0-28-12.536-28-28h12c15.464 0 28 12.536 28 28zM1007 134h-20c-11.046 0-20-8.954-20-20h20c11.046 0 20 8.954 20 20zM967 114c-13.255 0-24-10.745-24-24V47c13.255 0 24 10.745 24 24v43zM934 72c-8.284 0-15 6.716-15 15v15c8.284 0 15-6.716 15-15V72z" opacity=".2"></path><path d="M965-12h-37c-25.405 0-46 20.595-46 46h37c25.405 0 46-20.595 46-46zM997 13h-12c-15.464 0-28 12.536-28 28h12c15.464 0 28-12.536 28-28z" opacity=".4"></path><path d="M997 13h12c15.464 0 28 12.536 28 28h-12c-15.464 0-28-12.536-28-28z" opacity=".2"></path><path d="M1030 80h-29c-18.778 0-34 15.222-34 34h29c18.778 0 34-15.222 34-34zM792 51c13.255 0 24-10.745 24-24V5c-13.255 0-24 10.745-24 24v22zM915 102c-13.255 0-24-10.745-24-24V47c13.255 0 24 10.745 24 24v31z" opacity=".4"></path><path d="M836 39c-11.046 0-20-8.954-20-20V5c11.046 0 20 8.954 20 20v14zM723-36h5c32.033 0 58 25.967 58 58h-5c-32.033 0-58-25.967-58-58z" opacity=".2"></path><path d="M995 3h1c27.062 0 49-21.938 49-49h-1c-27.062 0-49 21.938-49 49z" opacity=".4"></path></g><g><path d="M1300 93h-21c-27.062 0-49-21.938-49-49h21c27.062 0 49 21.938 49 49zM1134 56h12c15.464 0 28-12.536 28-28h-12c-15.464 0-28 12.536-28 28z" opacity=".4"></path><path d="M1294 56h12c15.464 0 28-12.536 28-28h-12c-15.464 0-28 12.536-28 28zM1031 131h12c15.464 0 28-12.536 28-28h-12c-15.464 0-28 12.536-28 28z" opacity=".2"></path><path d="M1071 103c13.255 0 24-10.745 24-24V63c-13.255 0-24 10.745-24 24v16zM1118 88h10c16.569 0 30 13.431 30 30h-10c-16.569 0-30-13.431-30-30z" opacity=".4"></path><path d="M1051 10h37c25.405 0 46 20.595 46 46h-37c-25.405 0-46-20.595-46-46z" opacity=".2"></path><path d="M1299 102h67c18.778 0 34 15.222 34 34h-67c-18.778 0-34-15.222-34-34zM1400 136h16c18.778 0 34-15.222 34-34h-16c-18.778 0-34 15.222-34 34zM1440 26c-22.091 0-40 17.909-40 40v26c22.091 0 40-17.909 40-40V26z" opacity=".4"></path><path d="M1350 156h30c11.046 0 20-8.954 20-20h-30c-11.046 0-20 8.954-20 20z" opacity=".2"></path><path d="M1358 42h-10c-7.732 0-14-6.268-14-14h10c7.732 0 14 6.268 14 14zM1286 117c-5.523 0-10-4.477-10-10v-4c5.523 0 10 4.477 10 10v4zM1321 14c-5.523 0-10-4.477-10-10V0c5.523 0 10 4.477 10 10v4zM1196 130h-6c-8.284 0-15-6.716-15-15h6c8.284 0 15 6.716 15 15zM1162 20h49c18.778 0 34-15.222 34-34h-49c-18.778 0-34 15.222-34 34zM1246 115h-36c-18.778 0-34-15.222-34-34h36c18.778 0 34 15.222 34 34z" opacity=".4"></path><path d="M1276 134h-10c-11.046 0-20-8.954-20-20h10c11.046 0 20 8.954 20 20z" opacity=".2"></path><path d="M1311 93h6c18.778 0 34-15.222 34-34h-6c-18.778 0-34 15.222-34 34z" opacity=".4"></path><path d="M1391 93h-6c-18.778 0-34-15.222-34-34h6c18.778 0 34 15.222 34 34zM1134 78h25c8.284 0 15-6.716 15-15h-25c-8.284 0-15 6.716-15 15z" opacity=".2"></path><path d="M1224 73c-13.255 0-24-10.745-24-24V27c13.255 0 24 10.745 24 24v22z" opacity=".4"></path><path d="M1107 1c-13.255 0-24-10.745-24-24v-16c13.255 0 24 10.745 24 24V1zM1367 43c13.255 0 24-10.745 24-24V-3c-13.255 0-24 10.745-24 24v22z" opacity=".2"></path><path d="M1424 14c-13.255 0-24-10.745-24-24v-22c13.255 0 24 10.745 24 24v22z" opacity=".4"></path><path d="M1472-64c-26.51 0-48 21.49-48 48v30c26.51 0 48-21.49 48-48v-30zM1180 61c11.046 0 20-8.954 20-20V27c-11.046 0-20 8.954-20 20v14zM1300-5h-21c-27.062 0-49 21.938-49 49h21c27.062 0 49-21.938 49-49zM1154-6c-8.284 0-15 6.716-15 15v9c8.284 0 15-6.716 15-15v-9z" opacity=".2"></path><path d="M1119-12c11.046 0 20 8.954 20 20v10c-11.046 0-20-8.954-20-20v-10z" opacity=".4"></path><path d="M1334 28c11.046 0 20-8.954 20-20V-2c-11.046 0-20 8.954-20 20v10z" opacity=".2"></path><g><path d="M1564 91h37c25.405 0 46-20.595 46-46h-37c-25.405 0-46 20.595-46 46z" opacity=".397"></path><path d="M1484 82c-22.091 0-40-17.909-40-40V27c22.091 0 40 17.909 40 40v15zM1534 65h12c15.464 0 28-12.536 28-28h-12c-15.464 0-28 12.536-28 28z" opacity=".4"></path><path d="M1534 65h-12c-15.464 0-28-12.536-28-28h12c15.464 0 28 12.536 28 28z" opacity=".2"></path><path d="M1553 28h29c18.778 0 34-15.222 34-34h-29c-18.778 0-34 15.222-34 34z" opacity=".203"></path><path d="M1620 100c-13.255 0-24 10.745-24 24v25c13.255 0 24-10.745 24-24v-25z" opacity=".2"></path><path d="M1592 98h-12c-15.464 0-28 12.536-28 28h12c15.464 0 28-12.536 28-28zM1554 76h-21c-27.062 0-49 21.938-49 49h21c27.062 0 49-21.938 49-49z" opacity=".4"></path><path d="M1585 174h-52c-27.062 0-49-21.938-49-49h52c27.062 0 49 21.938 49 49z" opacity=".2"></path></g><path d="M1512 15h-25c-8.284 0-15-6.716-15-15h25c8.284 0 15 6.716 15 15z" opacity=".2"></path><path d="M1533 6c13.255 0 24-10.745 24-24v-22c-13.255 0-24 10.745-24 24V6z" opacity=".4"></path><path d="M1533 6c-11.046 0-20-8.954-20-20v-14c11.046 0 20 8.954 20 20V6z" opacity=".2"></path></g></g></g></svg> 