<svg id="Layer_1" data-name="Layer 1" xmlns="http://www.w3.org/2000/svg" width="15" height="12" viewBox="0 0 15 12"><defs><style>.cls-1{fill:#fff;}</style></defs><title>blockquote-quote</title><path id="_" data-name="“" class="cls-1" d="M11.92,11.28a2.48,2.48,0,0,1-2-.9A3.69,3.69,0,0,1,9.16,8,6.9,6.9,0,0,1,10.36,4,12.71,12.71,0,0,1,14.12.6l.88,1a16.8,16.8,0,0,0-2.68,2.64,4.39,4.39,0,0,0-1,2.2l.16.12a.62.62,0,0,1,.38-.26,2,2,0,0,1,.62-.1,1.86,1.86,0,0,1,1.5.7,2.7,2.7,0,0,1,.58,1.78,2.47,2.47,0,0,1-2.6,2.6Zm-8,0a2.48,2.48,0,0,1-2-.9A3.69,3.69,0,0,1,1.16,8,6.9,6.9,0,0,1,2.36,4,12.71,12.71,0,0,1,6.12.6L7,1.6A16.8,16.8,0,0,0,4.32,4.24a4.39,4.39,0,0,0-1,2.2l.16.12a.62.62,0,0,1,.38-.26,2,2,0,0,1,.62-.1,1.86,1.86,0,0,1,1.5.7,2.7,2.7,0,0,1,.58,1.78,2.54,2.54,0,0,1-.72,1.88A2.54,2.54,0,0,1,3.92,11.28Z"/></svg>
