<svg id="Layer_1" data-name="Layer 1" xmlns="http://www.w3.org/2000/svg" width="335" height="90" viewBox="0 0 335 90"><defs><style>.cls-1{fill:#fff;}.cls-2,.cls-3{fill:#efeeee;}.cls-3{opacity:0.5;isolation:isolate;}</style></defs><title>editor-header-placeholder</title><g id="Header-_img_" data-name="Header-(img)"><rect id="Rectangle-7" class="cls-1" width="335" height="90"/><polygon id="Combined-Shape" class="cls-2" points="12 4 4 4 4 12 6 12 6 6 12 6 12 4"/><polygon id="Combined-Shape-2" data-name="Combined-Shape" class="cls-2" points="12 86 4 86 4 78 6 78 6 84 12 84 12 86"/><polygon id="Combined-Shape-3" data-name="Combined-Shape" class="cls-2" points="323 4 331 4 331 12 329 12 329 6 323 6 323 4"/><polygon id="Combined-Shape-4" data-name="Combined-Shape" class="cls-2" points="323 86 331 86 331 78 329 78 329 84 323 84 323 86"/><path id="Combined-Shape-5" data-name="Combined-Shape" class="cls-3" d="M155.5,85H97l37-40,21.35,23.08L189,31l49,54ZM125,31a11.76,11.76,0,0,1-12-11.5,12,12,0,0,1,24,0A11.76,11.76,0,0,1,125,31Z"/></g></svg>