<svg id="Layer_1" data-name="Layer 1" xmlns="http://www.w3.org/2000/svg" width="22" height="22" viewBox="0 0 22 22">
  <path id="pinterest" class="cls-1"
        d="M9.4,14.23C8.87,17,8.23,19.62,6.33,21c-.59-4.16.86-7.29,1.53-10.61C6.72,8.47,8,4.58,10.42,5.54c3,1.18-2.58,7.17,1.15,7.92,3.89.78,5.48-6.75,3.07-9.2-3.49-3.54-10.15-.08-9.33,5,.2,1.24,1.48,1.61.51,3.32C3.59,12.07,2.92,10.31,3,8A7.51,7.51,0,0,1,9.77,1.1c4.23-.5,8.15,1.51,8.7,5.46.61,4.46-1.9,9.29-6.39,8.94C10.86,15.41,10.35,14.81,9.4,14.23Z"/>
</svg>
