<svg id="Layer_1" data-name="Layer 1" xmlns="http://www.w3.org/2000/svg" width="22" height="22" viewBox="0 0 22 22">
  <path id="twitter" class="cls-1"
        d="M21,4.8a8.19,8.19,0,0,1-2.36.65,4.12,4.12,0,0,0,1.8-2.27,8.27,8.27,0,0,1-2.61,1,4.11,4.11,0,0,0-7,3.74A11.65,11.65,0,0,1,2.39,3.63,4.11,4.11,0,0,0,3.66,9.11,4.1,4.1,0,0,1,1.8,8.59v.05a4.11,4.11,0,0,0,3.29,4A4.16,4.16,0,0,1,4,12.81a3.94,3.94,0,0,1-.77-.08,4.1,4.1,0,0,0,3.83,2.85A8.23,8.23,0,0,1,2,17.34a8.72,8.72,0,0,1-1-.06,11.6,11.6,0,0,0,6.29,1.85A11.59,11.59,0,0,0,19,7.45V6.92A8.19,8.19,0,0,0,21,4.8Z"/>
</svg>
